<svg xmlns="http://www.w3.org/2000/svg" viewBox="0 0 650.54 575.5"><circle cx="552.87" cy="93.52" r="93.52" fill="#b58d52"/><circle cx="543.33" cy="97.82" r="56.78" transform="translate(-6.97 141.91) rotate(-14.79)" fill="#f2c88a"/><circle cx="97.67" cy="93.52" r="93.52" fill="#b58d52"/><circle cx="107.21" cy="97.82" r="56.78" transform="translate(-14.73 176.51) rotate(-75.21)" fill="#f2c88a"/><path d="M650.54,300.87C650.54,480,504.91,575.5,325.27,575.5S0,480,0,300.87,145.63,1.38,325.27,1.38,650.54,121.77,650.54,300.87Z" fill="#b58d52"/><path d="M446.28,458.86c0,57.67-54.18,95.31-121,95.31s-121-37.64-121-95.31,54.18-104.42,121-104.42S446.28,401.19,446.28,458.86Z" fill="#feedc5"/><path d="M367.23,436.82c0,20-18.78,33.06-42,33.06s-42-13.06-42-33.06,18.79-36.21,42-36.21S367.23,416.83,367.23,436.82Z" fill="#664e29"/><line x1="325.27" y1="435.81" x2="325.27" y2="504.69" fill="none" stroke="#664e29" stroke-linecap="round" stroke-linejoin="round" stroke-width="12.27"/><path d="M266.75,485.47s46.24,63.94,117,0" fill="none" stroke="#664e29" stroke-linecap="round" stroke-linejoin="round" stroke-width="12.27"/><ellipse cx="168.64" cy="346.13" rx="40.02" ry="42.2" fill="#664e29"/><ellipse cx="481.9" cy="346.13" rx="40.02" ry="42.2" fill="#664e29"/></svg>