<svg xmlns="http://www.w3.org/2000/svg" viewBox="0 0 692.36 570.17"><path d="M176.13,71.05a74.13,74.13,0,0,0-14.59-13.56c-19.47-13.27-43-14.32-64.73-21.72-24.21-8.26-47.29-19.44-70-31.06C22,2.27,14-2.46,9.22,1.57,5,5.15,3.36,18.18,2.29,23.38a111.13,111.13,0,0,0,.5,47.2A111.25,111.25,0,0,0,39.06,130c21.4,18.08,48.81,27.33,76,34,9.43,2.33,19.56,4.36,28.67,1,10.69-3.93,17.43-14.26,23.42-23.94l17.4-28.16c3.79-6.14,7.74-13.11,6.16-20.15-.85-3.8-3.21-7-5.54-10.15C182.27,78.7,179.3,74.77,176.13,71.05Z" fill="#cb9663"/><path d="M156.78,74.75a52.2,52.2,0,0,0-11.05-8.49c-14.44-8-30.93-7.15-46.51-10.89C81.81,51.2,65,44.93,48.39,38.33,44.9,36.94,39,34.17,36,37.29c-2.7,2.77-3,12-3.4,15.65a77,77,0,0,0,32.6,71.84C81.25,136,101,140.62,120.34,143.51c6.72,1,13.9,1.75,20-1.19,7.19-3.44,11.21-11.07,14.74-18.21q5.14-10.38,10.28-20.75c2.24-4.53,4.53-9.65,3-14.45-.84-2.58-2.7-4.69-4.52-6.7C161.55,79.67,159.23,77.13,156.78,74.75Z" fill="#b07948"/><path d="M516.23,71.05a74.07,74.07,0,0,1,14.58-13.56c19.47-13.27,43.06-14.32,64.73-21.72,24.21-8.26,47.3-19.44,70.05-31.06,4.78-2.44,12.81-7.17,17.55-3.14,4.21,3.58,5.86,16.61,6.93,21.81a111,111,0,0,1-.51,47.2A111.19,111.19,0,0,1,653.29,130c-21.39,18.08-48.8,27.33-76,34-9.43,2.33-19.56,4.36-28.68,1-10.68-3.93-17.42-14.26-23.41-23.94l-17.4-28.16c-3.79-6.14-7.74-13.11-6.16-20.15.84-3.8,3.21-7,5.53-10.15C510.09,78.7,513.05,74.77,516.23,71.05Z" fill="#cb9663"/><path d="M535.58,74.75a52.2,52.2,0,0,1,11-8.49c14.43-8,30.93-7.15,46.51-10.89,17.41-4.17,34.22-10.44,50.83-17,3.48-1.39,9.39-4.16,12.43-1,2.7,2.77,3,12,3.4,15.65a77.08,77.08,0,0,1-32.6,71.84C611.11,136,591.41,140.62,572,143.51c-6.72,1-13.91,1.75-20-1.19-7.18-3.44-11.2-11.07-14.74-18.21L527,103.36c-2.24-4.53-4.53-9.65-3-14.45.84-2.58,2.7-4.69,4.52-6.7C530.8,79.67,533.13,77.13,535.58,74.75Z" fill="#b07948"/><path d="M617.09,298.89c-3.4-36.68.29-73.59-4.41-110.19s-18.84-74-52.83-101.81C509.35,45.6,425.23,8.68,345.55,8.6h-3.4C263.81,9.75,183,45.6,132.51,86.89c-34,27.78-48.13,65.2-52.83,101.81s-1,73.51-4.41,110.19c-3.06,33-11.86,65.73-12.33,98.8s8.29,67.56,36.51,93.92c22,20.58,54.14,34.58,87,45.78,41.35,14.08,84.75,24.3,129.27,31.64,9.24,1.52,51.63,1.52,60.87,0,44.53-7.34,87.93-17.56,129.28-31.64,32.88-11.2,65-25.2,87-45.78,28.23-26.36,37-60.85,36.52-93.92S620.15,331.89,617.09,298.89Z" fill="#cb9663"/><path d="M346.42,372.39c-59.35,0-107.71,60.87-107.71,102.16s48.36,67.79,107.71,67.79,107.23-26.5,107.23-67.79S405.78,372.39,346.42,372.39Z" fill="#a4734e"/><path d="M178.85,492.91a34.92,34.92,0,0,0,6.1.73c16.39.55,40.51-15.1,32.19-33.87-1.76-4-4.61-7.31-7.43-10.6l-20.65-24.09c-7-8.14-14-16.3-21.76-23.66-2.72-2.57-6.37-5.22-9.86-3.89a9,9,0,0,0-4.13,4c-5.82,9.39-6.68,21.06-5.66,32.06,1.19,12.75,4.69,25.19,9.38,37.1,2.58,6.53,5.72,13.18,11.26,17.49A25.85,25.85,0,0,0,178.85,492.91Z" fill="#fff"/><path d="M513.51,492.91a34.91,34.91,0,0,1-6.11.73c-16.38.55-40.5-15.1-32.18-33.87,1.75-4,4.61-7.31,7.43-10.6l20.65-24.09c7-8.14,14-16.3,21.76-23.66,2.72-2.57,6.37-5.22,9.86-3.89a9,9,0,0,1,4.13,4c5.82,9.39,6.68,21.06,5.66,32.06-1.19,12.75-4.69,25.19-9.38,37.1-2.58,6.53-5.72,13.18-11.26,17.49A25.91,25.91,0,0,1,513.51,492.91Z" fill="#fff"/><path d="M320.73,442a20.54,20.54,0,0,0-4.45-4.7c-4.57-3.18-10.94-2.13-15.24,1.46s-6.78,9.26-7.92,15c-2.74,13.66,1.37,28.2,8.9,39.57,2.25,3.39,4.9,6.65,8.38,8.44a24.14,24.14,0,0,0,6.9,2c3.39.61,7.13,1,10-1,2.67-1.85,4-5.34,4.49-8.73C334.77,475,332.14,457.3,320.73,442Z" fill="#724b2b"/><path d="M376.29,442a20.29,20.29,0,0,1,4.44-4.7c4.58-3.18,10.94-2.13,15.25,1.46s6.77,9.26,7.92,15c2.73,13.66-1.38,28.2-8.9,39.57-2.25,3.39-4.9,6.65-8.39,8.44a24.17,24.17,0,0,1-6.89,2c-3.4.61-7.14,1-10-1-2.67-1.85-4-5.34-4.49-8.73C362.25,475,364.87,457.3,376.29,442Z" fill="#724b2b"/><path d="M346.18,130.53c18.25,0,33-34.06,33-76.08,0-16.58-2.31-31.9-6.22-44.4-9.17-.93-18.34-1.44-27.45-1.45h-3.4c-7.57.11-15.16.56-22.74,1.29-3.94,12.53-6.27,27.91-6.27,44.56C313.14,96.47,327.93,130.53,346.18,130.53Z" fill="#b07948"/><path d="M251.87,130.53c18.25,0,33-34.06,33-76.08a157.9,157.9,0,0,0-4.48-38.25,369.21,369.21,0,0,0-60.57,19.34,171.93,171.93,0,0,0-1,18.91C218.83,96.47,233.63,130.53,251.87,130.53Z" fill="#b07948"/><path d="M440.48,130.53c18.25,0,33-34.06,33-76.08a174.17,174.17,0,0,0-1-18.59,377.27,377.27,0,0,0-60.66-19.41,157.64,157.64,0,0,0-4.42,38C407.45,96.47,422.24,130.53,440.48,130.53Z" fill="#b07948"/><circle cx="229.09" cy="313.44" r="38.01" transform="translate(-154.53 253.79) rotate(-45)" fill="#724b2b"/><circle cx="463.27" cy="313.44" r="38.01" transform="translate(-85.94 419.38) rotate(-45)" fill="#724b2b"/></svg>