<svg xmlns="http://www.w3.org/2000/svg" viewBox="0 0 712.67 836.22"><path d="M488.91,188C454.85,330.65,474.14,457.53,532,471.38s132.36-90.57,166.43-233.23S702,15.86,644.09,2,523,45.34,488.91,188Z" fill="#f9e4e1"/><path d="M526.28,358.31c23.72,14.14,49.93,19.61,76.51,21.56,15.39-27.12,29.5-63,39.75-104,24.58-98.21,50.6-198.32-7.78-216.31-55.17-17-88,73.35-112.56,171.56-10.21,40.81-14.89,80-14.58,113A108.27,108.27,0,0,0,526.28,358.31Z" fill="#fef4f8"/><path d="M704.1,618.88c0,147.73-129.71,217.34-289.7,217.34S124.71,766.61,124.71,618.88s129.7-267.5,289.69-267.5S704.1,471.15,704.1,618.88Z" fill="#f9e4e1"/><path d="M704.1,556.52c0,170.3-129.71,250.54-289.7,250.54S124.71,726.82,124.71,556.52,257.25,279.4,417.24,279.4,704.1,386.22,704.1,556.52Z" fill="#f9e4e1"/><path d="M417.83,731.74c6.75,6.41,12.16,9.71,18.32,12.1,14,5.43,27.42,4.31,35.73-3" fill="none" stroke="#e78d83" stroke-linecap="round" stroke-miterlimit="10" stroke-width="11.26"/><path d="M410.9,731.77c-6.7,6.46-12.08,9.8-18.23,12.24-14,5.53-27.38,4.51-35.75-2.72" fill="none" stroke="#e78d83" stroke-linecap="round" stroke-miterlimit="10" stroke-width="11.26"/><line x1="414.31" y1="716.27" x2="414.37" y2="731.75" fill="none" stroke="#e78d83" stroke-linecap="round" stroke-miterlimit="10" stroke-width="11.26"/><path d="M394.22,689.41l40-.15a5.32,5.32,0,0,1,3.84,9l-19.91,20.54a5.31,5.31,0,0,1-7.61,0l-20.07-20.39A5.32,5.32,0,0,1,394.22,689.41Z" fill="#e78d83"/><circle cx="280.75" cy="627.53" r="39" transform="translate(-361.5 382.32) rotate(-45)" fill="#94705f"/><circle cx="547.7" cy="627.53" r="39" transform="translate(-159.46 1067.64) rotate(-80.78)" fill="#94705f"/><path d="M307.21,191.94c-8.71-20.55-18-41.94-34-56-29.74-26.17-72.89-17.87-103.25,4.12s-52.86,55.1-80.89,80.65c-17.79,16.22-37.69,29.28-57,43.2-11,7.95-22.32,16.75-28.15,30-10.76,24.49,1.66,57,22.16,73.52s46.59,20.35,71.2,20c40.23-.49,84-13.65,104.16-52,17.34,19,22.62,54.51,45.84,60.59,6.16,1.62,12.5.6,18.59-.73,23.39-5.13,51.88-19.79,71.41-35.7C386.73,319.47,329.87,245.41,307.21,191.94Z" fill="#f9e4e1"/></svg>