<svg xmlns="http://www.w3.org/2000/svg" viewBox="0 0 914.14 587.46"><path d="M143.34,160.19l.47-80.6c.09-16,.25-32.36,5.75-47.38S167.05,3.54,182.77.62C199.84-2.56,216.38,7.14,231,16.44L291.84,55c26.32,16.7,55.48,37.95,57.58,69.05.6,8.88-1.19,17.75-3.42,26.37-9.65,37.18-28.55,72.81-58.11,97.34-25.59,21.23-78.7,44.67-110.73,23.46C144.16,249.42,143.14,194.52,143.34,160.19Z" fill="#e2d7d3"/><path d="M180.09,97.83c-.12-7.55-.09-15.33,2.77-22.32a29.55,29.55,0,0,1,23.87-17.79c13.56-1.35,26,6.79,37.22,14.56l26,18.11c10.12,7,21.17,15.55,22.55,27.8,1.48,13-8.62,24.24-18.19,33.21-11.09,10.42-22.57,20.57-35.54,28.54S211.23,193.65,196,194.52c-9.12.53-9.62-4.48-10.48-12q-1.65-14.42-2.79-28.86Q180.53,125.78,180.09,97.83Z" fill="#fcebeb"/><path d="M770.8,160.19l-.47-80.6c-.09-16-.25-32.36-5.75-47.38S747.09,3.54,731.37.62c-17.07-3.18-33.6,6.52-48.26,15.82L622.3,55C596,71.74,566.82,93,564.72,124.09c-.6,8.88,1.19,17.75,3.42,26.37,9.65,37.18,28.55,72.81,58.11,97.34C651.84,269,705,292.47,737,271.26,770,249.42,771,194.52,770.8,160.19Z" fill="#e2d7d3"/><path d="M734.05,97.83c.12-7.55.09-15.33-2.77-22.32a29.55,29.55,0,0,0-23.87-17.79c-13.56-1.35-26,6.79-37.22,14.56l-26,18.11c-10.12,7-21.17,15.55-22.55,27.8-1.48,13,8.62,24.24,18.19,33.21,11.1,10.42,22.57,20.57,35.54,28.54s27.58,13.71,42.78,14.58c9.12.53,9.62-4.48,10.48-12q1.65-14.42,2.79-28.86Q733.62,125.78,734.05,97.83Z" fill="#fcebeb"/><path d="M798.35,346.6c-.89,162.55-150.71,241.86-335.51,240.85s-334.57-82-333.68-244.51S280.5,63.88,465.29,64.89,799.24,184.06,798.35,346.6Z" fill="#e2d7d3"/><path d="M.79,377.37c15.11,1.57,30.05,3.91,45,6.42s29.73,5.42,44.52,8.52,29.51,6.46,44.18,10.1,29.29,7.57,43.75,12.22c-15.11-1.56-30.06-3.89-45-6.41s-29.74-5.42-44.52-8.53-29.51-6.47-44.18-10.11S15.25,382,.79,377.37Z" fill="#828383"/><path d="M0,481.54c14.6-4.2,29.33-7.62,44.1-10.87s29.6-6.1,44.47-8.75,29.79-5.06,44.75-7.17,30-3.94,45.14-5c-14.6,4.21-29.33,7.64-44.1,10.88s-29.6,6.1-44.47,8.75-29.79,5-44.76,7.15S15.15,480.43,0,481.54Z" fill="#828383"/><path d="M914.14,378.34c-14.51,4.49-29.17,8.2-43.87,11.73s-29.48,6.68-44.3,9.63-29.68,5.64-44.6,8-29.91,4.52-45,5.92c14.51-4.49,29.17-8.21,43.87-11.74s29.48-6.68,44.3-9.62,29.68-5.63,44.6-8S899,379.74,914.14,378.34Z" fill="#828383"/><path d="M914,482.51C898.89,481.24,883.9,479.2,869,477s-29.83-4.83-44.68-7.64-29.63-5.88-44.37-9.24-29.43-7-44-11.35c15.13,1.26,30.12,3.3,45.07,5.53s29.84,4.83,44.68,7.65,29.63,5.89,44.37,9.25S899.48,478.16,914,482.51Z" fill="#828383"/><path d="M533.93,473.57c-1.19,14.28-12.44,23.89-25.88,26.83-12.53,2.74-30.15.82-38-10.51-3.93-5.68-5.35-12.72-5.36-19.53" fill="none" stroke="#828383" stroke-linecap="round" stroke-miterlimit="10" stroke-width="10.84"/><path d="M393.59,472.8c1,14.3,12.17,24,25.57,27.11,12.51,2.88,30.14,1.16,38.11-10.09,4-5.63,5.49-12.66,5.57-19.47" fill="none" stroke="#828383" stroke-linecap="round" stroke-miterlimit="10" stroke-width="10.84"/><path d="M485.7,452.81c-.05,8.49-9.47,19.63-21,19.57s-20.84-11.31-20.79-19.8,9.44-15.32,21-15.25S485.74,444.32,485.7,452.81Z" fill="#828383"/><path d="M415,136.26c6.42,13.61,13,27.42,23,38.66,3.46-11.22,3.5-23.17,3.5-34.91q0-37.29,0-74.58a414.75,414.75,0,0,0-53.71,6.16c3.56,14.3,9.84,27.92,16.1,41.18Q409.47,124.51,415,136.26Z" fill="#bcb4b1"/><path d="M489.09,174.92c10-11.24,16.56-25,23-38.66l11.08-23.49c6.23-13.21,12.51-26.75,16.09-41a414.4,414.4,0,0,0-53.69-6.29l0,74.51C485.59,151.75,485.62,163.7,489.09,174.92Z" fill="#bcb4b1"/><circle cx="316.27" cy="392.72" r="37.78" fill="#828383"/><circle cx="611.24" cy="392.72" r="37.78" fill="#828383"/></svg>