<svg xmlns="http://www.w3.org/2000/svg" viewBox="0 0 638.38 704.51"><ellipse cx="319.19" cy="86.5" rx="47.47" ry="86.5" fill="#ee7b3f"/><ellipse cx="250.95" cy="103.37" rx="41.87" ry="76.29" transform="translate(0.41 207.73) rotate(-45)" fill="#ee7b3f"/><ellipse cx="387.43" cy="103.37" rx="76.29" ry="41.87" transform="translate(40.38 304.23) rotate(-45)" fill="#ee7b3f"/><path d="M638.38,449.47c0,189.76-142.91,255-319.19,255S0,639.23,0,449.47,142.91,105.9,319.19,105.9,638.38,259.72,638.38,449.47Z" fill="#f6f5e6"/><path d="M343.33,483.35c0,20.89-10.81,34.93-24.14,34.93s-24.14-14-24.14-34.93,10.81-62.12,24.14-62.12S343.33,462.46,343.33,483.35Z" fill="#ee7b3f"/><path d="M378.57,424.65c0,15.39-26.59,27.86-59.38,27.86S259.81,440,259.81,424.65s26.59-40.32,59.38-40.32S378.57,409.27,378.57,424.65Z" fill="#f2d72b"/><circle cx="197.88" cy="370.83" r="35.79" transform="translate(-126.85 103.95) rotate(-22.5)" fill="#664e29"/><circle cx="440.5" cy="370.83" r="35.79" transform="translate(-133.2 420.09) rotate(-45)" fill="#664e29"/></svg>