<svg xmlns="http://www.w3.org/2000/svg" viewBox="0 0 708.21 712.26"><path d="M159.24,51.9c5-17.41,12.67-35.49,24.95-48.21a11.84,11.84,0,0,1,20.39,7.24A199.44,199.44,0,0,0,246,117.76c5.33,6.79,11.19,13.39,14.44,21.4,7.94,19.6-2.54,43-19.48,55.63-11.84,8.84-40.75,22.62-56,17.08-14.64-5.32-22.82-30.21-27.2-43.78C145.7,130.69,148.55,89.26,159.24,51.9Z" fill="#f1c474"/><path d="M549,51.9c-5-17.41-12.67-35.49-25-48.21a11.84,11.84,0,0,0-20.39,7.24,199.36,199.36,0,0,1-41.41,106.83c-5.33,6.79-11.19,13.39-14.44,21.4-7.94,19.6,2.54,43,19.49,55.63,11.83,8.84,40.75,22.62,56,17.08,14.63-5.32,22.81-30.21,27.19-43.78C562.51,130.69,559.67,89.26,549,51.9Z" fill="#f1c474"/><path d="M560.7,510.89A392.59,392.59,0,0,0,585,260.19c-2.86-12.05-6.31-24-11.37-35.32-15.1-33.72-43.95-59.92-76.45-77.51-24.81-13.42-51.78-22.22-79.07-29-23.62-5.89-104.41-5.89-128,0-27.29,6.8-54.26,15.6-79.07,29-32.49,17.59-61.35,43.79-76.44,77.51-5.07,11.31-8.52,23.27-11.37,35.32a392.58,392.58,0,0,0,24.3,250.7c.26.56.53,1.11.79,1.68-.6,6.64-.94,13.35-.94,20.15,0,117.78,92.56,179.54,206.75,179.54S560.86,650.5,560.86,532.72c0-6.8-.35-13.51-1-20.15C560.17,512,560.45,511.45,560.7,510.89Z" fill="#fff5e4"/><rect x="223.24" y="542.49" width="261.73" height="169.77" rx="84.89" fill="#fad2c0"/><path d="M371.21,126.92a198.78,198.78,0,0,0-3.94,29.66c-.65,9.38-.89,18.77-1.11,28.17-.24,9.78-1,19.55-1.16,29.32a246.11,246.11,0,0,0,10.54,74.32c7.26,24.45,17.54,47.89,28.15,71,18.58,40.56,41.35,79.69,72.1,112.3a292.76,292.76,0,0,0,85,62.11c0-.37,0-.74,0-1.11,0-6.8-.35-13.51-1-20.15.26-.56.54-1.12.79-1.68A392.59,392.59,0,0,0,585,260.19c-2.86-12.05-6.31-24-11.37-35.32-15.1-33.72-43.95-59.92-76.45-77.51-24.81-13.42-51.78-22.22-79.07-29-8.64-2.16-24.95-3.52-43.3-4.1A101.49,101.49,0,0,0,371.21,126.92Z" fill="#636262"/><path d="M4,205.61a9.16,9.16,0,0,0-3.49,3.68c-1,2.34-.2,5.08.66,7.47,8.15,22.39,23.67,41.33,42.94,52.36,25.07,14.35,54.42,15,82.6,15.16,28.72.14,60.89-1.51,80.66-24.77,6.5-7.65,11.23-17.76,10.93-28.3-1.18-40.75-65.37-49.4-90.91-52.6C85,173.3,40.53,179.9,4,205.61Z" fill="#fff5e4"/><path d="M704.26,205.61a9.12,9.12,0,0,1,3.5,3.68c1,2.34.2,5.08-.67,7.47-8.14,22.39-23.67,41.33-42.93,52.36-25.07,14.35-54.43,15-82.61,15.16-28.72.14-60.89-1.51-80.65-24.77-6.51-7.65-11.24-17.76-10.93-28.3,1.17-40.75,65.36-49.4,90.9-52.6C623.23,173.3,667.69,179.9,704.26,205.61Z" fill="#636262"/><ellipse cx="300.81" cy="643.64" rx="22.64" ry="29.71" transform="translate(-208.69 148.49) rotate(-20.77)" fill="#636262"/><ellipse cx="405.98" cy="643.64" rx="29.71" ry="22.64" transform="translate(-339.8 795.01) rotate(-69.23)" fill="#636262"/><ellipse cx="218.19" cy="400.65" rx="49.24" ry="55.16" fill="#fff"/><ellipse cx="230.47" cy="400.65" rx="37.5" ry="42.01" fill="#636262"/><ellipse cx="490.02" cy="400.65" rx="49.24" ry="55.16" fill="#fff"/><ellipse cx="477.75" cy="400.65" rx="37.5" ry="42.01" fill="#636262"/></svg>