<svg xmlns="http://www.w3.org/2000/svg" viewBox="0 0 704.3 871.71"><path d="M198.92,205.77c-18.61-55.05-29.69-126.51-41.56-183.39C155.26,12.29,150.17-.12,139.87,0c-11.21.13-15.43,14.6-16.05,25.78a567.47,567.47,0,0,0,83.37,327.16c3.38,5.46,7,11,12.09,14.85,10.85,8.18,30.44,4.88,38.06-6.65,10.62-16.07.87-22.14-8.11-36.19C225.84,288.33,214,250.21,198.92,205.77Z" fill="#9e7a52"/><path d="M117.75,199.63c-16.56-10.08-36.07-21.37-53.12-17.53-28.09,6.35-4.8,45.39,7.7,54.15,28.92,20.27,67.47,33.09,100.89,43.56,2.73.85,5.58,1.7,8.41,1.28,5.22-.76,8.92-5.57,10.84-10.48a33.47,33.47,0,0,0-5.25-32.83c-12.64-15.31-37.48-20.1-54.51-29.3C128.15,206,123.11,202.89,117.75,199.63Z" fill="#9e7a52"/><path d="M184.59,91.28c7.2-13.37,15.92-28.72,29-32.86,21.49-6.82,21.19,28.77,16.21,39.64-11.53,25.13-32.51,49.05-51,69.33a15.07,15.07,0,0,1-5.18,4.2c-3.83,1.54-8.23-.24-11.47-2.79a26.22,26.22,0,0,1-9.44-24.27c2.49-15.34,17.38-28.41,25.25-41.36C180.09,99.71,182.26,95.6,184.59,91.28Z" fill="#9e7a52"/><path d="M535.7,205.77c18.61-55.05,29.69-126.51,41.56-183.39,2.1-10.09,7.19-22.5,17.49-22.38,11.21.13,15.43,14.6,16,25.78a567.47,567.47,0,0,1-83.37,327.16c-3.38,5.46-7,11-12.09,14.85-10.85,8.18-30.44,4.88-38.06-6.65-10.62-16.07-.87-22.14,8.11-36.19C508.78,288.33,520.67,250.21,535.7,205.77Z" fill="#9e7a52"/><path d="M616.87,199.63c16.56-10.08,36.07-21.37,53.12-17.53,28.09,6.35,4.8,45.39-7.7,54.15-28.92,20.27-67.47,33.09-100.89,43.56-2.73.85-5.58,1.7-8.41,1.28-5.22-.76-8.92-5.57-10.84-10.48a33.47,33.47,0,0,1,5.25-32.83c12.64-15.31,37.48-20.1,54.52-29.3C606.47,206,611.51,202.89,616.87,199.63Z" fill="#9e7a52"/><path d="M550,91.28c-7.2-13.37-15.92-28.72-29-32.86-21.48-6.82-21.19,28.77-16.2,39.64,11.52,25.13,32.5,49.05,50.95,69.33a14.94,14.94,0,0,0,5.17,4.2c3.83,1.54,8.23-.24,11.47-2.79a26.2,26.2,0,0,0,9.44-24.27c-2.49-15.34-17.38-28.41-25.25-41.36C554.53,99.71,552.36,95.6,550,91.28Z" fill="#9e7a52"/><path d="M0,373c0,25.86,61.17,46.12,110.53,46.12S184.08,398.9,184.08,373s-24.19-47.56-73.55-47.56S0,347.14,0,373Z" fill="#ffa956"/><path d="M68.38,372.48c-.93,14,36.5,27.6,67.27,29.71s46.62-7.83,47.62-21.79-13.3-26.76-44.14-28.87S69.38,358.49,68.38,372.48Z" fill="#d89052"/><path d="M704.3,373c0,25.86-61.18,46.12-110.54,46.12S520.22,398.9,520.22,373s24.12-47.56,73.54-47.56S704.3,347.14,704.3,373Z" fill="#ffa956"/><path d="M635.85,372.48c1,14-36.43,27.6-67.27,29.71S522,394.36,521,380.4s13.3-26.76,44.07-28.87S634.86,358.49,635.85,372.48Z" fill="#d89052"/><path d="M560.63,359.73C525.32,312.11,463.83,291,408.5,291H301.08c-55.33,0-116.75,21.14-152.13,68.76-31.77,42.9-29.28,137-22.38,188.68,8.15,60.68,140.6,293.72,163.92,307.71,10.87,12.35,37.93,16,64.32,15,26.32,1,53.3-2.61,64.22-14.91,23.43-14,155.83-247.1,164-307.78C590,496.69,592.46,402.63,560.63,359.73Z" fill="#ffa956"/><path d="M129.81,402.13c.17.06.35-.15.54-.54A1.12,1.12,0,0,0,129.81,402.13Z" fill="#d89052"/><path d="M580,402.13a1.1,1.1,0,0,0-.53-.54C579.67,402,579.85,402.19,580,402.13Z" fill="#d89052"/><path d="M563.12,360.48c-13.31-20.05-34.2-35.59-56.39-46.38-32.36-15.71-73.61-34.31-151.69-33v-.25c-78.21-1.43-119.55,17.47-151.88,33.2C181,324.89,160,340.43,146.78,360.48,144,364.55,139,372.26,136,380.9c-3.08,9-4.57,18.39-5.67,20.69,5.33-3.21,48.32,1.39,53.36,2.16,17.28,2.51,34.68,7.39,49.67,16.07,37.3,21.66,48.3,64.8,60.42,101.33,13.62,40.81,21.51,85.14,40.66,124.18,2.36,4.72,4.42,9.76,7.71,14,.75.93,9,8.17,9,8l.62.05V668l3.14-.24,3.14.24v-.48l.63-.05c0,.12,8.27-7.12,9-8,3.24-4.29,5.35-9.33,7.65-14,19.15-39,27.1-83.37,40.66-124.18,12.18-36.53,23.12-79.67,60.42-101.33,15-8.68,32.39-13.56,49.74-16.07,5-.77,48-5.37,53.3-2.16-1.1-2.31-2.55-11.75-5.68-20.69C570.82,372.26,565.79,364.55,563.12,360.48Z" fill="#d89052"/><path d="M354.92,658.35a31.53,31.53,0,0,1,4.6.07c50.1.15,31.89,62.54,55.88,86.88,15.11,15.35,38.05,17.46,40,41.43,1.55,18.81-4.91,41.68-15.61,56.67-5.09,7.11-16.66,13.67-24.74,19.39s-21.45,7.15-31.95,8.52c-8.21,1.12-17.47-.5-27.92,0Z" fill="#fff6ba"/><path d="M355.41,658.35a30.54,30.54,0,0,0-4.54.07C300.77,658.57,319,721,295,745.3c-15.1,15.35-38,17.46-40,41.43-1.55,18.81,4.91,41.68,15.6,56.67,5.16,7.11,16.67,13.67,24.81,19.39s21.39,7.15,31.89,8.52c8.21,1.12,17.47-.5,27.91,0Z" fill="#fff6ba"/><path d="M311.27,789.81c0-25.18,21.82-24.37,47.13-24.37s44.39-.81,44.39,24.37S382.33,843.27,357,843.27,311.27,815,311.27,789.81Z" fill="#905823"/><circle cx="234.1" cy="585.22" r="29.15" transform="translate(-345.24 336.94) rotate(-45)" fill="#906035"/><circle cx="475.74" cy="585.22" r="29.15" transform="translate(-274.47 507.8) rotate(-45)" fill="#906035"/></svg>