<svg xmlns="http://www.w3.org/2000/svg" viewBox="0 0 717.34 583.83"><path d="M717.34,291.92c0,165-158,291.91-328.29,291.91S80.71,450.07,80.71,285.06,229.39,0,399.68,0,717.34,126.91,717.34,291.92Z" fill="#80caeb"/><ellipse cx="213.93" cy="375.28" rx="122.51" ry="215.28" transform="translate(-187.05 535.97) rotate(-82.15)" fill="#80caeb"/><circle cx="417.2" cy="288.8" r="37.73" fill="#3e7188"/><path d="M21.9,363.34c23.27-2.63,46.45,5.15,67.76,14.86s41.86,21.51,64.43,27.74c18.91,5.22,38.75,6.36,58.37,5.8,11.27-.32,22.66-1.22,33.41-4.63a74.39,74.39,0,0,0,39.82-30.63" fill="none" stroke="#3e7188" stroke-linecap="round" stroke-linejoin="round" stroke-width="14.85"/><path d="M224.4,537.7a314.13,314.13,0,0,0,164.65,46.13c62.72,0,124.5-14.51,173.19-45.68-39-31.19-101.9-54.83-168.67-54.83C324.53,483.32,263.22,504.67,224.4,537.7Z" fill="#f1f1f1"/><ellipse cx="556.45" cy="98.44" rx="34.06" ry="64.88" transform="translate(192.97 531.12) rotate(-60)" fill="#c0e5f9"/></svg>