<svg xmlns="http://www.w3.org/2000/svg" viewBox="0 0 583.23 926.18"><path d="M107.38,194.3C136,290,166.85,322.59,191.92,318.09s34.86-44.38,6.25-140.11S125.72-4.34,100.65.17,78.76,98.57,107.38,194.3Z" fill="#f8c36a"/><ellipse cx="99.71" cy="160.49" rx="30.39" ry="75.74" transform="translate(-88.55 176.54) rotate(-63.02)" fill="#f8c36a"/><path d="M475.86,194.3C447.25,290,416.39,322.59,391.31,318.09S356.45,273.71,385.07,178,457.52-4.34,482.59.17,504.47,98.57,475.86,194.3Z" fill="#f8c36a"/><ellipse cx="483.53" cy="160.49" rx="75.74" ry="30.39" transform="translate(-20.19 236.84) rotate(-26.98)" fill="#f8c36a"/><ellipse cx="291.62" cy="167.13" rx="44.85" ry="111.12" fill="#7ba14e"/><ellipse cx="237.56" cy="196.24" rx="44.85" ry="98.59" transform="translate(-70.52 190.94) rotate(-38.57)" fill="#7ba14e"/><ellipse cx="345.68" cy="196.24" rx="98.59" ry="44.85" transform="translate(-23.28 344.13) rotate(-51.43)" fill="#7ba14e"/><path d="M13.64,462.7c0-172.62,124.46-284,278-284s278,111.41,278,284-124.45,319.4-278,319.4S13.64,635.32,13.64,462.7Z" fill="#9bc76f"/><circle cx="249.3" cy="725.02" r="22.83" transform="translate(-258.47 150.59) rotate(-22.5)" fill="#3e542a"/><circle cx="333.93" cy="725.02" r="22.83" transform="translate(-414.86 448.48) rotate(-45)" fill="#3e542a"/><circle cx="159" cy="501.36" r="43.49" transform="translate(-307.95 259.27) rotate(-45)" fill="#506b39"/><circle cx="424.24" cy="501.36" r="43.49" transform="translate(-230.26 446.83) rotate(-45)" fill="#506b39"/><path d="M195.59,723.73c-15.05,2.67-27.91,13.1-36.4,25.82-13.94,20.85-18.94,46.12-20.57,70.76-1.56,23.56-.61,48.63-11.8,70.17S88.15,926.57,65,914.2" fill="none" stroke="#f8b62d" stroke-linecap="round" stroke-miterlimit="10" stroke-width="14.9"/><path d="M386.71,723.73c15.05,2.67,27.91,13.1,36.4,25.82,13.94,20.85,18.94,46.12,20.57,70.76,1.56,23.56.61,48.63,11.8,70.17s38.67,36.09,61.83,23.72" fill="none" stroke="#f8b62d" stroke-linecap="round" stroke-miterlimit="10" stroke-width="14.9"/><path d="M104.58,229.13c31.15,39.65,37.11,86.94,13.31,105.64s-68.34,1.72-99.49-37.93C-4.21,268.07-1,225.43,2.44,204.2a14.92,14.92,0,0,1,15.89-12.49C39.78,193.37,82,200.36,104.58,229.13Z" fill="#9bc76f"/><path d="M478.66,229.13c-31.15,39.65-37.11,86.94-13.31,105.64s68.34,1.72,99.49-37.93c22.6-28.77,19.41-71.41,16-92.64a14.94,14.94,0,0,0-15.9-12.49C543.46,193.37,501.26,200.36,478.66,229.13Z" fill="#9bc76f"/></svg>