<svg xmlns="http://www.w3.org/2000/svg" viewBox="0 0 824.03 621.48"><path d="M269.78,37.13A91.2,91.2,0,0,0,252.7,22.68C194-15.51,111.12,12.93,69,61,20.36,116.4-5.73,191.89,1.06,265.53c2.59,28,10.45,57.19,30.73,76.72,11,10.55,24.88,17.6,39.35,22.26,33,10.61,68.63,8.49,101.3-3.12C152.3,329.76,140.88,292.28,140.88,250,140.88,160,192.43,81.15,269.78,37.13Z" fill="#adbcc5"/><path d="M755.07,61c-42.17-48.06-125-76.5-183.74-38.31a91.27,91.27,0,0,0-17.09,14.45C631.59,81.15,683.15,160,683.15,250c0,42.34-11.42,79.81-31.57,111.44,32.67,11.61,68.33,13.73,101.31,3.12,14.47-4.66,28.4-11.71,39.35-22.26,20.27-19.53,28.14-48.68,30.72-76.72C829.76,191.89,803.67,116.4,755.07,61Z" fill="#adbcc5"/><path d="M554.24,37.13C512.89,13.59,464.18,0,412,0S311.13,13.59,269.78,37.13C192.43,81.15,140.88,160,140.88,250c0,42.33,11.42,79.81,31.56,111.44,35.33,55.46,97.51,92.93,172.08,107-13.38,7.8-29.26,10-44.23,14.08-22,6.07-43.07,17.1-58,34.3s-23.12,51.67-18.46,74c1.6,7.65,4.8,15.23,10.55,20.52,9.19,8.47,22.78,9.57,35.26,10s25.44.63,37.6-2.72,23.77-10.75,29.38-22c3.38-6.81,4.65-25.61,10.17-30.84a41.2,41.2,0,0,1,18.81-9.53c25.34-5.42,49.17-14.76,69.16-31.25,12.82-10.58,24.15-23.37,31-38.5a89.82,89.82,0,0,0,5.66-16.6C549.57,457,615,418.84,651.58,361.39c20.15-31.63,31.57-69.1,31.57-111.44C683.15,160,631.59,81.15,554.24,37.13Z" fill="#bdced8"/><circle cx="302.08" cy="314.93" r="33.85" fill="#6b767d"/><path d="M545.47,281.08a33.86,33.86,0,1,0,33.86,33.85A33.85,33.85,0,0,0,545.47,281.08Z" fill="#6b767d"/><path d="M322.17,399.19a4.23,4.23,0,1,0-6.25,5.71c2,2.2,4.09,4.48,6.26,6.66a96.71,96.71,0,0,0,41.62,24.79,58.44,58.44,0,0,0,7-7,87.36,87.36,0,0,1-42.64-23.82C326.14,403.53,324.13,401.32,322.17,399.19Z" fill="#c15d46"/></svg>