<svg xmlns="http://www.w3.org/2000/svg" viewBox="0 0 563.36 662.55"><path d="M209.86,126.23,50.48,1.79a8.69,8.69,0,0,0-13.93,7L42,213.31a11,11,0,0,0,4.59,8.56,8.73,8.73,0,0,0,8.89.85l155.76-78.6a1.59,1.59,0,0,1,.32-.16c4.34-2.2,5.88-7.92,3.42-12.8A10.5,10.5,0,0,0,209.86,126.23Z" fill="#f6d270"/><path d="M160.54,112.47,65.41,38.2a5.18,5.18,0,0,0-8.31,4.19l3.27,122.06a6.57,6.57,0,0,0,2.74,5.11,5.21,5.21,0,0,0,5.3.51l93-46.92c.07-.05.13-.06.19-.1,2.6-1.3,3.51-4.72,2-7.63A6.3,6.3,0,0,0,160.54,112.47Z" fill="#fff3ca"/><path d="M353.5,126.23,512.88,1.79a8.68,8.68,0,0,1,13.92,7l-5.48,204.5a11,11,0,0,1-4.59,8.56,8.71,8.71,0,0,1-8.88.85l-155.76-78.6a1.91,1.91,0,0,0-.32-.16c-4.35-2.2-5.88-7.92-3.42-12.8A10.5,10.5,0,0,1,353.5,126.23Z" fill="#f6d270"/><path d="M402.82,112.47,498,38.2a5.18,5.18,0,0,1,8.31,4.19L503,164.45a6.6,6.6,0,0,1-2.74,5.11,5.23,5.23,0,0,1-5.31.51l-93-46.92a1.14,1.14,0,0,0-.19-.1c-2.59-1.3-3.51-4.72-2-7.63A6.28,6.28,0,0,1,402.82,112.47Z" fill="#fff3ca"/><path d="M563.36,322.32c0,93.41-142.72,240.68-225,317.81a82.89,82.89,0,0,1-113.4,0C142.72,563,0,415.73,0,322.32,0,191.09,126.11,84.71,281.68,84.71S563.36,191.09,563.36,322.32Z" fill="#f6d270"/><path d="M393.19,537.08c-5.87-4.75-8-11.73-13.08-17.14-6.25-6.72-13.91-3.94-20.95-.15-13.44,7.28-24.69,18.76-39.74,22.59-20.42,5.21-42.4,6.71-63.21,3.07-18-3.17-30.37-12.59-45.41-22.31-4.72-3-17.81-13.17-23.49-8.09-4.34,3.87-7.88,8.2-12.54,11.76-12.85,9.8-26.1,17-41,21.52,11.65,12.74,38,41.41,39.76,43.32,13.46,14.87,20,19.27,26.8,25.05,8.61,8.36,16.85,16.2,24.56,23.43a82.89,82.89,0,0,0,113.4,0c11.45-10.74,24.08-22.84,37.33-36a96.58,96.58,0,0,1,10.94-10.94c14.06-14.17,28.62-29.34,43.09-45.15C416.53,546.63,402.4,544.56,393.19,537.08Z" fill="#fff3ca"/><ellipse cx="281.68" cy="624.12" rx="27.52" ry="18.13" transform="translate(-3.2 1.45) rotate(-0.29)" fill="#514218"/><path d="M128,607.56c9.41.4,18.74,1.28,28.05,2.34s18.59,2.3,27.85,3.71,18.48,3,27.67,4.82,18.37,3.75,27.46,6.21c-9.41-.38-18.75-1.26-28.06-2.32s-18.59-2.3-27.84-3.72-18.48-3-27.67-4.83S137.08,610,128,607.56Z" fill="#514218"/><path d="M130.3,651c8.88-3.15,17.87-5.82,26.89-8.33s18.1-4.81,27.22-7,18.26-4.14,27.46-5.89,18.44-3.39,27.79-4.51c-8.87,3.17-17.86,5.84-26.89,8.34s-18.1,4.82-27.21,7-18.26,4.13-27.47,5.88S139.65,649.88,130.3,651Z" fill="#514218"/><path d="M435.6,606c-9.07,2.54-18.21,4.6-27.39,6.48s-18.39,3.58-27.62,5.11-18.5,2.89-27.8,4-18.63,2.13-28,2.61c9.07-2.55,18.22-4.61,27.4-6.49s18.38-3.58,27.62-5.1,18.5-2.88,27.8-4S426.2,606.47,435.6,606Z" fill="#514218"/><path d="M433.73,649.45c-9.36-1-18.61-2.55-27.83-4.23s-18.39-3.56-27.53-5.6-18.23-4.24-27.28-6.68-18.07-5-27-8.06c9.36,1,18.62,2.53,27.83,4.22s18.39,3.56,27.53,5.6,18.23,4.25,27.28,6.69S424.83,646.38,433.73,649.45Z" fill="#514218"/><path d="M447.71,405.84s-59.65-20.29-100.36,56.85" fill="none" stroke="#514218" stroke-linecap="round" stroke-miterlimit="10" stroke-width="13.26"/><path d="M115.64,405.84S175.3,385.55,216,462.69" fill="none" stroke="#514218" stroke-linecap="round" stroke-miterlimit="10" stroke-width="13.26"/></svg>