<svg xmlns="http://www.w3.org/2000/svg" viewBox="0 0 632.06 476.69"><path d="M629.89,309.5c0,128.76-140.52,165-313.86,165S2.17,438.26,2.17,309.5,142.69,76.37,316,76.37,629.89,180.75,629.89,309.5Z" fill="#b6ce6a" stroke="#b6ce6a" stroke-linecap="round" stroke-linejoin="round" stroke-width="4.35"/><circle cx="484.33" cy="107.95" r="105.66" transform="translate(65.53 374.09) rotate(-45)" fill="#b6ce6a" stroke="#b6ce6a" stroke-linecap="round" stroke-linejoin="round" stroke-width="4.57"/><path d="M437.1,131.56a49.5,49.5,0,0,0,62.61,31.79,50,50,0,0,0,31.85-62.93A49.51,49.51,0,0,0,469,68.63,50,50,0,0,0,437.1,131.56Z" fill="#69793d"/><circle cx="146.04" cy="107.95" r="105.66" transform="translate(-33.56 134.88) rotate(-45)" fill="#b6ce6a" stroke="#b6ce6a" stroke-linecap="round" stroke-linejoin="round" stroke-width="4.57"/><ellipse cx="146.04" cy="115.99" rx="49.65" ry="49.87" transform="translate(-28.95 51.49) rotate(-18.23)" fill="#69793d"/><polyline points="143.39 267.84 314.62 361.92 486.98 265.61" fill="none" stroke="#69793d" stroke-linecap="round" stroke-linejoin="round" stroke-width="14.62"/><circle cx="284.81" cy="255.92" r="11.39" fill="#69793d"/><circle cx="345.56" cy="255.92" r="11.39" fill="#69793d"/></svg>