<svg xmlns="http://www.w3.org/2000/svg" viewBox="0 0 718.33 783.09"><path d="M470.75,265.14h0a27.25,27.25,0,0,1-19.17-33.31L495.4,69.13A27.25,27.25,0,0,1,528.71,50h0a27.25,27.25,0,0,1,19.17,33.31L504.06,246A27.25,27.25,0,0,1,470.75,265.14Z" fill="#f7d76d"/><path d="M616.19,226.09A161.34,161.34,0,0,1,718.31,253c.26,5.12-2,10-4.51,14.48a135.68,135.68,0,0,1-74.1,62c-22.47,7.65-46.52,9.21-70.24,9.94-12.44.39-25.18.51-36.93-3.57C498.58,324,504.65,288.19,524,265.42,544.88,240.91,585.37,228.53,616.19,226.09Z" fill="#f7d76d"/><path d="M247.58,265.14h0a27.25,27.25,0,0,0,19.17-33.31L222.93,69.13A27.25,27.25,0,0,0,189.62,50h0a27.25,27.25,0,0,0-19.17,33.31L214.27,246A27.25,27.25,0,0,0,247.58,265.14Z" fill="#f7d76d"/><path d="M102.14,226.09A161.34,161.34,0,0,0,0,253c-.26,5.12,2,10,4.51,14.48a135.68,135.68,0,0,0,74.1,62c22.47,7.65,46.51,9.21,70.24,9.94,12.44.39,25.18.51,36.93-3.57,33.95-11.78,27.88-47.61,8.51-70.38C173.45,240.91,133,228.53,102.14,226.09Z" fill="#f7d76d"/><ellipse cx="527.45" cy="54.62" rx="54.35" ry="57.98" transform="translate(337.54 549.72) rotate(-74.93)" fill="#9a7119"/><ellipse cx="190.88" cy="54.62" rx="57.98" ry="54.35" transform="translate(-7.64 51.52) rotate(-15.07)" fill="#9a7119"/><path d="M581.42,319.88c-2.75-11.6-6.07-23.12-10.94-34-14.53-32.46-42.31-57.68-73.59-74.61-23.88-12.92-49.84-21.38-76.11-27.94-22.73-5.67-100.5-5.67-123.23,0-26.27,6.56-52.23,15-76.11,27.94-31.28,16.93-59.06,42.15-73.59,74.61-4.87,10.88-8.19,22.4-10.94,34A377.93,377.93,0,0,0,160.3,561.19C182.46,610,214.83,653.47,249.87,694c27,31.18,59.61,62.84,100.7,66a85.28,85.28,0,0,0,8.59.2,85.14,85.14,0,0,0,8.59-.2c41.1-3.11,73.75-34.77,100.71-66,35-40.54,67.41-84,89.56-132.82A377.87,377.87,0,0,0,581.42,319.88Z" fill="#f7d76d"/><ellipse cx="359.16" cy="577.81" rx="173.2" ry="205.28" fill="#f7d76d"/><ellipse cx="356.6" cy="695.58" rx="129.99" ry="87.51" fill="#f3c76f"/><ellipse cx="333.51" cy="698.4" rx="16.19" ry="21.35" transform="translate(-304.52 260.32) rotate(-30)" fill="#9a7119"/><ellipse cx="384.82" cy="698.4" rx="21.35" ry="16.19" transform="translate(-412.42 682.47) rotate(-60)" fill="#9a7119"/><path d="M290.22,732.07s67.63,63.7,137.89,0" fill="none" stroke="#9a7119" stroke-linecap="round" stroke-linejoin="round" stroke-width="11.82"/><path d="M277.31,490.16a29.69,29.69,0,0,1-3.35,6.66,45.81,45.81,0,0,1-4.43,5.73,50.73,50.73,0,0,1-11.12,9.13,53.09,53.09,0,0,1-28.57,7.83,49.86,49.86,0,0,1-15.36-2.64,47.14,47.14,0,0,1-13.58-7.38c-1-.77-1.93-1.67-2.87-2.51l-1.37-1.3c-.44-.44-.84-.94-1.25-1.41-.83-.94-1.61-1.91-2.38-2.87s-1.39-2.06-2-3.11a35.75,35.75,0,0,1-5-13.83c2.57.56,4.76,1.32,6.94,2,1.12.28,2.16.63,3.2.94s2,.62,3.07.87,2,.57,2.93.85,1.94.45,2.87.7l1.37.36,1.39.28c.91.2,1.79.43,2.67.6,3.53.69,6.86,1.17,10.11,1.55s6.49.49,9.77.58a198.92,198.92,0,0,0,21.15-.94l12.11-1.08c2.13-.19,4.31-.38,6.59-.55S274.75,490.26,277.31,490.16Z" fill="#685814"/><path d="M445,490.16c2.56.1,4.9.25,7.18.43s4.46.36,6.59.55l12.11,1.08a198.92,198.92,0,0,0,21.15.94c3.28-.09,6.5-.23,9.77-.58s6.58-.86,10.11-1.55c.89-.17,1.76-.4,2.67-.6l1.39-.28,1.37-.36c.93-.25,1.89-.48,2.87-.7s1.92-.58,2.93-.85,2-.53,3.07-.87,2.08-.66,3.2-.94c2.18-.65,4.37-1.41,6.94-2a35.75,35.75,0,0,1-5,13.83c-.65,1-1.32,2.1-2,3.11s-1.55,1.93-2.38,2.87c-.41.47-.81,1-1.25,1.41l-1.37,1.3c-.94.84-1.85,1.74-2.87,2.51a47.14,47.14,0,0,1-13.58,7.38,49.86,49.86,0,0,1-15.36,2.64,53.09,53.09,0,0,1-28.57-7.83,50.73,50.73,0,0,1-11.12-9.13,45.81,45.81,0,0,1-4.43-5.73A29.69,29.69,0,0,1,445,490.16Z" fill="#685814"/></svg>