<svg xmlns="http://www.w3.org/2000/svg" viewBox="0 0 768.46 614.78"><ellipse cx="95" cy="343.78" rx="95" ry="98.53" fill="#afafaf"/><ellipse cx="673.46" cy="343.78" rx="95" ry="98.53" fill="#afafaf"/><path d="M588.67,181.37c0,89.7-91.53,162.41-204.44,162.41S179.79,271.07,179.79,181.37,271.32,0,384.23,0,588.67,91.67,588.67,181.37Z" fill="#686663"/><path d="M692.42,358.16c0,157.61-138,256.62-308.19,256.62S76,515.77,76,358.16,214,72.79,384.23,72.79,692.42,200.56,692.42,358.16Z" fill="#686663"/><path d="M491.59,194.18c-41.88-.1-79.73,21.3-107.36,55.9-27.63-34.6-65.48-56-107.36-55.9-84.34,2.18-152.78,78.93-152.52,169.9.12,55.37,25,109.53,61.94,149.77,50.78,55.25,124.53,77.85,197.94,76.27,73.41,1.58,147.16-21,197.94-76.27,37-40.24,61.82-94.4,61.94-149.77C644.37,273.11,575.93,196.36,491.59,194.18Z" fill="#afafaf"/><path d="M432,439.86c16.92-16.19,19.85-39.63,6.54-52.37s-37.42-10-54.32,5.89c-16.9-15.85-41.12-18.52-54.32-5.89s-10.39,36.18,6.53,52.37" fill="none" stroke="#686663" stroke-linecap="round" stroke-linejoin="round" stroke-width="11.34"/><ellipse cx="351.92" cy="415.32" rx="13.13" ry="16.75" transform="translate(-192.42 421.05) rotate(-50.33)" fill="#686663"/><ellipse cx="415.38" cy="415.32" rx="16.75" ry="13.13" transform="translate(-169.48 360.83) rotate(-39.67)" fill="#686663"/><line x1="384.23" y1="466.03" x2="384.23" y2="500.94" fill="none" stroke="#686663" stroke-linecap="round" stroke-linejoin="round" stroke-width="11.34"/><path d="M253.57,462.34c77.41,60.29,183.91,60.29,261.32,0" fill="none" stroke="#686663" stroke-linecap="round" stroke-linejoin="round" stroke-width="11.34"/><path d="M269.05,323.86c68.24,26.57,162.12,26.57,230.36,0" fill="none" stroke="#686663" stroke-linecap="round" stroke-linejoin="round" stroke-width="11.34"/><ellipse cx="268.75" cy="367.69" rx="27.79" ry="28.83" fill="#686663"/><ellipse cx="500.03" cy="367.69" rx="27.79" ry="28.83" fill="#686663"/></svg>