<svg xmlns="http://www.w3.org/2000/svg" viewBox="0 0 510.22 747.46"><path d="M385.42,75.35A177.24,177.24,0,0,1,473.62,0c4.79,3,7.77,8.08,10.26,13.13a149,149,0,0,1,9.54,105.7c-7.16,25.08-20.8,47.76-35,69.64-7.44,11.46-15.31,23-26.35,31.1-31.89,23.26-60.43-4.65-68.85-36.39C354.15,149,368.32,104.7,385.42,75.35Z" fill="#95663f"/><path d="M392,128.76c2.32-9.55,7.13-18.42,12.25-26.88,10.64-17.57,23-34.21,37.95-47.68,4.88-4.4,10.85-8.7,16.58-7.55,7.34,1.46,10.06,10.8,10.67,19,1.25,16.61-1.46,33.79-6.51,50.26a214.87,214.87,0,0,1-9.36,24.75c-2.19,4.88-3.85,10-6.76,14.58-4.27,6.63-11.76,9.05-18.42,9.87-14.4,1.78-31-.85-36.2-16.67C390.18,142.35,390.35,135.4,392,128.76Z" fill="#4f3218"/><path d="M127.21,75.35A177.24,177.24,0,0,0,39,0c-4.79,3-7.76,8.08-10.25,13.13a149,149,0,0,0-9.55,105.7c7.16,25.08,20.8,47.76,35,69.64,7.44,11.46,15.31,23,26.35,31.1,31.89,23.26,60.44-4.65,68.86-36.39C158.48,149,144.31,104.7,127.21,75.35Z" fill="#95663f"/><path d="M120.67,128.76c-2.33-9.55-7.14-18.42-12.26-26.88-10.64-17.57-23-34.21-37.95-47.68-4.88-4.4-10.85-8.7-16.58-7.55-7.34,1.46-10.05,10.8-10.67,19C42,82.28,44.67,99.46,49.72,115.93a214.93,214.93,0,0,0,9.37,24.75c2.18,4.88,3.84,10,6.75,14.58,4.27,6.63,11.76,9.05,18.43,9.87,14.39,1.78,31-.85,36.19-16.67C122.46,142.35,122.29,135.4,120.67,128.76Z" fill="#4f3218"/><path d="M499.28,262.11c-3-12.74-6.67-25.39-12-37.35-16-35.66-46.48-63.36-80.84-82-26.24-14.2-54.76-23.5-83.62-30.69-25-6.23-110.41-6.23-135.38,0C158.56,119.3,130,128.6,103.8,142.8c-34.36,18.6-64.87,46.3-80.84,82-5.35,12-9,24.61-12,37.35a415.15,415.15,0,0,0,25.7,265.1C61,580.82,96.54,628.6,135,673.13c29.62,34.26,65.48,69,110.63,72.45a90.47,90.47,0,0,0,9.44.22,90.47,90.47,0,0,0,9.44-.22c45.15-3.42,81-38.19,110.63-72.45,38.5-44.53,74.06-92.31,98.4-145.92A415.15,415.15,0,0,0,499.28,262.11Z" fill="#95663f"/><path d="M374.57,637.07c0,46.45-53.49,110.39-119.46,110.39S135.65,683.52,135.65,637.07s53.13-69.63,119.11-69.63S374.57,590.62,374.57,637.07Z" fill="#c59f6a"/><ellipse cx="230.1" cy="672.12" rx="15.56" ry="20.52" transform="translate(-305.23 205.09) rotate(-30)" fill="#4f3218"/><ellipse cx="279.42" cy="672.12" rx="20.52" ry="15.56" transform="translate(-442.36 578.04) rotate(-60)" fill="#4f3218"/><path d="M188.49,697.89s65,61.21,132.53,0" fill="none" stroke="#4f3218" stroke-linecap="round" stroke-linejoin="round" stroke-width="11.36"/><path d="M157.12,172.38c6.6,27.25,23.4,46.17,40.13,67.78,5.12,6.63,26.38,32,22.29,41.25C222,275.85,248,261,249.84,268.28a181.08,181.08,0,0,1,4.22,66.15c41.19-8.78,72.52-50.76,69.2-92.74,13.72,8.64,24.44,16.37,35.42,27.86,8.37-14,10.35-20.23,11.47-31.68q2.69-27.45,4-55c.76-16.28,1.11-32.91-3.55-48.53-5-16.75-15.55-31.41-28-43.67C299.7,48.52,191.14,53.63,159.66,111,159.41,111.41,151.29,148.3,157.12,172.38Z" fill="#4f3218"/><path d="M81.91,434.62c2.56.09,4.9.25,7.17.43s4.47.36,6.6.55l12.1,1.07a193.88,193.88,0,0,0,21.15.94c3.28-.09,6.51-.22,9.77-.57s6.58-.87,10.12-1.55c.88-.17,1.76-.41,2.66-.6l1.39-.28,1.38-.36c.92-.26,1.88-.48,2.86-.71s1.92-.57,2.94-.84,2-.53,3.06-.88,2.08-.65,3.2-.94c2.19-.64,4.37-1.41,6.94-2a35.81,35.81,0,0,1-5,13.83c-.65,1.05-1.32,2.09-2,3.1s-1.55,1.94-2.37,2.88c-.42.47-.82,1-1.26,1.4l-1.36,1.31c-.94.83-1.86,1.73-2.87,2.5a47.47,47.47,0,0,1-13.59,7.39A50.1,50.1,0,0,1,129.38,464a53.13,53.13,0,0,1-28.58-7.83A51.49,51.49,0,0,1,89.68,447a47.1,47.1,0,0,1-4.43-5.74A29,29,0,0,1,81.91,434.62Z" fill="#4f3218"/><path d="M428.31,434.62a29,29,0,0,1-3.34,6.65,46.2,46.2,0,0,1-4.44,5.74,51,51,0,0,1-11.12,9.13A53.07,53.07,0,0,1,380.84,464a50.1,50.1,0,0,1-15.35-2.64,47.47,47.47,0,0,1-13.59-7.39c-1-.77-1.93-1.67-2.87-2.5l-1.36-1.31c-.45-.44-.84-.93-1.26-1.4-.82-.94-1.61-1.91-2.37-2.88s-1.39-2.05-2-3.1a35.65,35.65,0,0,1-5-13.83c2.57.55,4.75,1.32,6.94,2,1.12.29,2.15.64,3.2.94s2,.63,3.06.88,2,.57,2.93.84,1.95.45,2.87.71l1.38.36,1.38.28c.91.19,1.79.43,2.67.6,3.53.68,6.86,1.16,10.12,1.55s6.48.48,9.77.57a193.88,193.88,0,0,0,21.15-.94l12.1-1.07c2.13-.19,4.32-.38,6.6-.55S425.75,434.71,428.31,434.62Z" fill="#4f3218"/></svg>