<svg xmlns="http://www.w3.org/2000/svg" viewBox="0 0 838.58 565.04"><circle cx="679.77" cy="158.81" r="158.81" transform="translate(86.81 527.18) rotate(-45)" fill="#afb8c1"/><circle cx="670.41" cy="165.91" r="110.32" transform="translate(79.04 522.65) rotate(-45)" fill="#edf7fc"/><circle cx="158.81" cy="158.81" r="158.81" transform="translate(-65.78 158.81) rotate(-45)" fill="#afb8c1"/><circle cx="168.17" cy="165.91" r="110.32" transform="translate(-68.06 167.51) rotate(-45)" fill="#edf7fc"/><path d="M704.49,326c0,157.51-127.69,239-285.2,239s-285.2-81.49-285.2-239S261.78,40.85,419.29,40.85,704.49,168.53,704.49,326Z" fill="#afb8c1"/><path d="M486.28,411.16c0,37-30,56.14-67,56.14s-67-19.14-67-56.14,30-84.55,67-84.55S486.28,374.17,486.28,411.16Z" fill="#505050"/><ellipse cx="276.41" cy="340.63" rx="33.76" ry="37.68" fill="#606060"/><ellipse cx="562.17" cy="340.63" rx="33.76" ry="37.68" fill="#606060"/></svg>