<svg xmlns="http://www.w3.org/2000/svg" viewBox="0 0 669.98 769.27"><path d="M326.76,0S227.87,18.89,195.11,92.81c0,0-81.25-10.7-165.57,69,0,0,58.34,31.49,67.5,36.07,0,0-104.27,51.53-96.64,124.78,0,0,20.84-1.83,56.25-5.37-23.27,27.08-68.91,71.45-39.73,215.65,0,0,13.93,2,51.78-22.61-1,10.88-17.42,155,136.62,221.2l55.45-40s21.69,39.63,62.89,77.78c0,0,34.35,0,70-71.68l56.56,35.06S610.52,658.28,576,507.57c0,0,44.92,22.1,81.43,33.39,0,0,28.31-139.47-50.28-231.79,0,0,11,22.27,61.81,16.85,0,0,17.67-104.6-93.87-124.07,0,0,50.24-15.2,68.55-15.2,0,0-16-99.15-162.54-74,0,0,10.53-53.24,26.73-70.61,0,0-70.05-42.42-162.18,29.68Z" fill="#9d7453"/><circle cx="174.5" cy="229.54" r="59.48" fill="#fdda90"/><circle cx="180.17" cy="235.21" r="40.36" fill="#f9f6ca"/><circle cx="486.76" cy="229.54" r="59.48" fill="#fdda90"/><circle cx="481.1" cy="235.21" r="40.36" fill="#f9f6ca"/><path d="M550.8,440.41c0,136.19-98.57,207-220.17,207s-220.16-70.81-220.16-207,98-255.55,219.56-255.55S550.8,304.22,550.8,440.41Z" fill="#fdda90"/><path d="M213.5,527.21c-5.11,14.63,3.93,27.94,15.83,35.85,13.91,9.24,32.12,12.32,48.45,9.56,25.75-4.36,55.72-26.65,51.77-55.89" fill="none" stroke="#825e42" stroke-linecap="round" stroke-linejoin="round" stroke-width="12.05"/><path d="M447.76,527.21c5.12,14.63-3.93,27.94-15.83,35.85-13.9,9.24-32.11,12.32-48.45,9.56-25.74-4.36-55.72-26.65-51.76-55.89" fill="none" stroke="#825e42" stroke-linecap="round" stroke-linejoin="round" stroke-width="12.05"/><path d="M360.86,468.45a161.45,161.45,0,0,0-30.23-2.39,161.28,161.28,0,0,0-30.22,2.39c-10.3,2.11-15.13,15.25-10.59,23.47a113,113,0,0,0,18.41,24.81c5.18,5.22,14,14.3,22.4,13.26,8.37,1,17.23-8,22.4-13.26a113.06,113.06,0,0,0,18.42-24.81C376,483.7,371.15,470.56,360.86,468.45Z" fill="#825e42"/><ellipse cx="440.31" cy="390.52" rx="26.94" ry="26.72" transform="translate(-108.04 604.29) rotate(-62.87)" fill="#825e42"/><ellipse cx="220.95" cy="390.52" rx="26.72" ry="26.94" transform="translate(-153.82 143.8) rotate(-27.14)" fill="#825e42"/></svg>