<svg xmlns="http://www.w3.org/2000/svg" viewBox="0 0 847.22 567.13"><path d="M847.21,319.22a113.83,113.83,0,1,1-112.35-115.3A113.85,113.85,0,0,1,847.21,319.22Z" fill="#fde4c5"/><path d="M0,319.22a113.83,113.83,0,1,0,112.35-115.3A113.85,113.85,0,0,0,0,319.22Z" fill="#fde4c5"/><path d="M745,294.65c0,150.49-143.87,272.48-321.34,272.48s-321.34-122-321.34-272.48S246.14,0,423.61,0,745,144.16,745,294.65Z" fill="#b3861d"/><path d="M542.91,142.84c-46.53-.1-88.59,21.9-119.3,57.46-30.71-35.56-72.77-57.56-119.3-57.46C210.58,145.08,134.52,224,134.8,317.51c.14,56.93,27.75,112.62,68.84,154,56.43,56.8,138.39,80,220,78.42,81.58,1.63,163.54-21.62,220-78.42,41.09-41.36,68.7-97.05,68.84-154C712.7,224,636.64,145.08,542.91,142.84Z" fill="#fde4c5"/><path d="M440.88,400.72c-.07,5.85-7.87,10.5-17.41,10.37s-17.21-5-17.13-10.82,7.87-10.49,17.41-10.37S441,394.87,440.88,400.72Z" fill="#634900"/><path d="M423.8,424.28c-.05,19.88-22.18,32.06-40.13,29.62-12.73-1.73-20.12-11.25-24-23" fill="none" stroke="#634900" stroke-linecap="round" stroke-linejoin="round" stroke-width="13.02"/><path d="M423.42,424.28c.05,19.88,22.18,32.06,40.13,29.62,12.73-1.73,20.12-11.25,24-23" fill="none" stroke="#634900" stroke-linecap="round" stroke-linejoin="round" stroke-width="13.02"/><line x1="423.61" y1="407.22" x2="423.61" y2="431.65" fill="none" stroke="#634900" stroke-linecap="round" stroke-linejoin="round" stroke-width="13.02"/><circle cx="299.67" cy="346.66" r="34.27" fill="#634900"/><circle cx="547.55" cy="346.66" r="34.27" fill="#634900"/></svg>