<svg xmlns="http://www.w3.org/2000/svg" viewBox="0 0 847.26 613.48"><circle cx="166" cy="166" r="165.97" transform="translate(-68.76 166) rotate(-45)" fill="#bbbec9"/><path d="M268.13,104.77c45.19,44.83,15.94,83.57-28.88,128.76S151,313.25,105.82,268.42A115.25,115.25,0,0,1,268.13,104.77Z" fill="#fce4dd"/><circle cx="681.27" cy="166" r="165.97" transform="translate(82.16 530.35) rotate(-45)" fill="#bbbec9"/><path d="M579.13,104.77C533.94,149.6,563.19,188.34,608,233.53s88.24,79.72,133.43,34.89A115.25,115.25,0,1,0,579.13,104.77Z" fill="#fce4dd"/><path d="M706.49,359.81c0,126.36-128.6,242.05-287.23,242.05S132,486.17,132,359.81,260.63,131,419.26,131,706.49,233.45,706.49,359.81Z" fill="#bbbec9"/><ellipse cx="419.26" cy="584.43" rx="29.05" ry="31.26" transform="translate(-171.92 994.11) rotate(-89.07)" fill="#737475"/><path d="M721.32,486.19S611.5,462.08,549,495.11" fill="none" stroke="#737475" stroke-linecap="round" stroke-linejoin="round" stroke-width="8.04"/><path d="M721.2,546.9s-106.31-36.6-172.2-11" fill="none" stroke="#737475" stroke-linecap="round" stroke-linejoin="round" stroke-width="8.04"/><path d="M117.2,486.19S227,462.08,289.52,495.11" fill="none" stroke="#737475" stroke-linecap="round" stroke-linejoin="round" stroke-width="8.04"/><path d="M117.2,546.9s106.31-36.6,172.2-11" fill="none" stroke="#737475" stroke-linecap="round" stroke-linejoin="round" stroke-width="8.04"/><circle cx="533.68" cy="433.9" r="32.03" transform="translate(-104.01 176.14) rotate(-17.1)" fill="#737475"/><circle cx="309.74" cy="433.9" r="32.03" transform="translate(-64.9 54.62) rotate(-9.13)" fill="#737475"/></svg>