<svg xmlns="http://www.w3.org/2000/svg" xmlns:xlink="http://www.w3.org/1999/xlink" viewBox="0 0 686.1 515.76"><defs><clipPath id="a"><circle cx="448.85" cy="315.04" r="69.5" transform="translate(-54.41 97.21) rotate(-11.66)" fill="#fff"/></clipPath><clipPath id="b"><circle cx="237.25" cy="315.04" r="69.5" transform="translate(-153.28 260.03) rotate(-45)" fill="#fff"/></clipPath></defs><path d="M686.1,311c0,137.21-153.59,204.79-343,204.79S0,448.18,0,311,153.59,62.51,343.05,62.51,686.1,173.75,686.1,311Z" fill="#b79a7e"/><path d="M634.12,133.78a606,606,0,0,0-15-59c-4.29-14.23-8.9-28.37-13.58-42.47-3.2-9.64-2.81-24-12.76-29.74-10.7-6.23-24.2-.16-34.56,6.62a250.36,250.36,0,0,0-85.32,94.94c-1.61,3.16-3.19,6.59-2.68,10.09.8,5.43,6.16,8.8,11,11.4q53.26,28.64,108.7,52.94c10.08,4.42,35.67,21.85,44.33,11,6.21-7.8,5.23-19.5,4.12-28.75C637.31,151.74,635.86,142.73,634.12,133.78Z" fill="#b79a7e"/><path d="M52,133.78a603.17,603.17,0,0,1,15-59c4.28-14.23,8.9-28.37,13.58-42.47,3.19-9.64,2.8-24,12.75-29.74,10.7-6.23,24.2-.16,34.56,6.62a250.2,250.2,0,0,1,85.32,94.94c1.61,3.16,3.2,6.59,2.68,10.09-.8,5.43-6.16,8.8-11,11.4q-53.26,28.64-108.7,52.94c-10.07,4.42-35.67,21.85-44.33,11-6.21-7.8-5.23-19.5-4.12-28.75C48.8,151.74,50.25,142.73,52,133.78Z" fill="#b79a7e"/><path d="M83.58,301A128.88,128.88,0,0,0,212.46,429.91c71.17,0,146.94-57.7,146.94-128.88S283.63,172.15,212.46,172.15A128.88,128.88,0,0,0,83.58,301Z" fill="#dacdb7"/><path d="M602.52,301A128.88,128.88,0,0,1,473.65,429.91c-71.18,0-146.95-57.7-146.95-128.88s75.77-128.88,147-128.88A128.88,128.88,0,0,1,602.52,301Z" fill="#dacdb7"/><path d="M389.49,371.49a35.21,35.21,0,0,0-5.79-11.82c-8.84-11.21-25-13.2-39.23-12.67-.47,0-2.36,0-2.83,0-14.27-.53-30.39,1.46-39.23,12.67a35,35,0,0,0-5.79,11.82c-4.6,15.47-1.95,32.45,4.58,47.21s16.7,27.62,27.47,39.66c4.89,5.45,9.46,8.73,14.15,9.54V468c.08,0,.15-.06.23-.07s.16.06.24.07v-.13c4.69-.81,9.26-4.09,14.14-9.54,10.77-12,20.94-24.89,27.47-39.66S394.08,387,389.49,371.49Z" fill="#ffee7d"/><circle cx="448.85" cy="315.04" r="69.5" transform="translate(-54.41 97.21) rotate(-11.66)" fill="#fff"/><g clip-path="url(#a)"><circle cx="429.72" cy="315.04" r="53.46" transform="translate(-96.91 396.13) rotate(-45)" fill="#8e7862"/></g><circle cx="237.25" cy="315.04" r="69.5" transform="translate(-153.28 260.03) rotate(-45)" fill="#fff"/><g clip-path="url(#b)"><circle cx="256.38" cy="315.04" r="53.46" transform="translate(-110.74 488.84) rotate(-76.19)" fill="#8e7862"/></g></svg>