<svg xmlns="http://www.w3.org/2000/svg" viewBox="0 0 784.14 606.58"><path d="M773.85,335.8c0,183.46-175.46,270.78-386.31,270.78S10.3,519.26,10.3,335.8,181.22,3.61,392.07,3.61,773.85,152.33,773.85,335.8Z" fill="#fff5e4"/><path d="M190.56,27.57c40.37,40.09-5,74.28-49.91,119.47S68.42,231.3,28.05,191.21-8.68,82,36.2,36.79,150.18-12.53,190.56,27.57Z" fill="#545251"/><path d="M593.59,27.57c-40.38,40.09,5,74.28,49.91,119.47s72.22,84.26,112.6,44.17S792.82,82,748,36.79,634-12.53,593.59,27.57Z" fill="#545251"/><path d="M429.43,482.83c0,13.86-17.06,34.88-38.1,34.88s-38.1-21-38.1-34.88,17.06-25.11,38.1-25.11S429.43,469,429.43,482.83Z" fill="#545251"/><path d="M326,524.14a32.1,32.1,0,0,0,20.87,27.6,31.36,31.36,0,0,0,33.33-8.9,47.63,47.63,0,0,0,7.65-13.7c2.13-5.44,3.85-11.31,2.84-17.06" fill="none" stroke="#545251" stroke-linecap="round" stroke-miterlimit="10" stroke-width="11.72"/><path d="M458.14,524.14a32.11,32.11,0,0,1-20.86,27.6,31.38,31.38,0,0,1-33.34-8.9,47.87,47.87,0,0,1-7.65-13.7c-2.13-5.44-3.85-11.31-2.84-17.06" fill="none" stroke="#545251" stroke-linecap="round" stroke-miterlimit="10" stroke-width="11.72"/><path d="M151.26,335C143.83,350.88,138,367.53,129.4,383c-10.61,19.07-38.69,38.7-32.63,63.11,5.87,23.69,44.51,29.71,64.27,33.91,33.84,7.2,72,6.43,104.36-6.68,35.65-14.44,59.53-41.53,68.91-78.86,8.45-33.62,5.25-72.73-15.1-101.67C298,262.64,261,255.1,226.89,265.2c-24.6,7.28-45.42,23.49-60.63,43.92A147.81,147.81,0,0,0,151.26,335Z" fill="#545251"/><circle cx="262.38" cy="399" r="47.12" transform="translate(-205.29 302.39) rotate(-45)" fill="#fff"/><circle cx="271.01" cy="399.75" r="40.23" transform="translate(-89.84 78.76) rotate(-14.21)" fill="#545251"/><path d="M632.88,335c7.44,15.89,13.23,32.54,21.86,48.05,10.62,19.07,38.69,38.7,32.64,63.11-5.88,23.69-44.51,29.71-64.27,33.91-33.85,7.2-72,6.43-104.36-6.68-35.66-14.44-59.54-41.53-68.92-78.86-8.44-33.62-5.24-72.73,15.11-101.67,21.23-30.21,58.19-37.75,92.31-27.65,24.6,7.28,45.42,23.49,60.63,43.92A146.56,146.56,0,0,1,632.88,335Z" fill="#545251"/><circle cx="521.77" cy="399" r="47.12" transform="translate(-127.85 301.86) rotate(-28.9)" fill="#fff"/><circle cx="513.14" cy="399.75" r="40.23" transform="translate(-33.75 751.92) rotate(-70.7)" fill="#545251"/></svg>