<svg xmlns="http://www.w3.org/2000/svg" viewBox="0 0 671.33 554.78"><path d="M671.33,316.61c0,166.75-150.28,238.17-335.67,238.17S0,483.36,0,316.61,150.28,0,335.66,0,671.33,149.86,671.33,316.61Z" fill="#5b687d"/><path d="M309.07,309.71c0,84.58-34.18,153.14-106.38,153.14S72,394.29,72,309.71s89.16-175.57,161.37-175.57S309.07,225.12,309.07,309.71Z" fill="#fff"/><path d="M363,309.71c0,84.58,34.18,153.14,106.38,153.14s130.74-68.56,130.74-153.14S510.91,134.14,438.7,134.14,363,225.12,363,309.71Z" fill="#fff"/><path d="M335.66,499.46c-137.8,0-249.52-62.55-249.52-139.7s111.72-15.19,249.52-15.19,249.53-62,249.53,15.19S473.47,499.46,335.66,499.46Z" fill="#fff"/><path d="M253.37,387.86c0-29.86,37-54.07,82.64-54.07s82.64,24.21,82.64,54.07-37,40.56-82.64,40.56S253.37,417.73,253.37,387.86Z" fill="#fac469"/><circle cx="195.16" cy="317.11" r="39.73" fill="#5b687d"/><circle cx="476.17" cy="317.11" r="39.73" fill="#5b687d"/></svg>