<svg xmlns="http://www.w3.org/2000/svg" viewBox="0 0 797.94 573.62"><path d="M233.49,45.64A99.31,99.31,0,1,1,77.57,168.69c-34-43-35.94-117.31,7.11-151.29S199.51,2.59,233.49,45.64Z" fill="#b38e54"/><circle cx="150.77" cy="104.23" r="52.04" transform="translate(-31.09 81.36) rotate(-27.49)" fill="#fcddb4"/><path d="M568,45.64A99.31,99.31,0,1,0,724,168.69c34-43,35.94-117.31-7.12-151.29S602,2.59,568,45.64Z" fill="#b38e54"/><circle cx="650.74" cy="104.23" r="52.04" transform="translate(257.91 633.39) rotate(-62.51)" fill="#fcddb4"/><path d="M678.26,407.33c4.57-25.67,5-130.47,1.76-156.85-1.43-11.57-2.83-23.19-5.49-34.62a104.22,104.22,0,0,0-7.81-22.69c.76.28,62.77,96.43,86.07,116.78,4.51,3.94,49.82,36.25,44.76,39.94A1065.3,1065.3,0,0,0,661.77,467.2,319.32,319.32,0,0,0,678.26,407.33Z" fill="#b38e54"/><path d="M632.58,488.1c8.23-6.11,17.36-10.87,26.44-15.61,38.47-20.09,124-50.35,123.8-51.26-2.43-12-12.17-21.65-23.41-26.59s-23.84-5.81-36.11-5.5c-29,.72-60,9-78,31.85-4,5.08-7.22,10.72-11.06,15.91-5.67,7.66-12.75,14.41-16.88,23-3.87,8-7,21.1-4.67,30C616.14,503.16,625.86,493.1,632.58,488.1Z" fill="#b38e54"/><path d="M119.68,407.33c-4.57-25.67-5-130.47-1.76-156.85,1.44-11.57,2.83-23.19,5.49-34.62a103.72,103.72,0,0,1,7.82-22.69c-.77.28-62.78,96.43-86.08,116.78C40.64,313.89-4.67,346.2.39,349.89A1065.3,1065.3,0,0,1,136.17,467.2,319.32,319.32,0,0,1,119.68,407.33Z" fill="#b38e54"/><path d="M165.36,488.1c-8.23-6.11-17.35-10.87-26.44-15.61-38.47-20.09-124-50.35-123.8-51.26,2.43-12,12.17-21.65,23.41-26.59s23.84-5.81,36.11-5.5c29,.72,60,9,78,31.85,4,5.08,7.21,10.72,11.05,15.91,5.68,7.66,12.75,14.41,16.88,23,3.87,8,7,21.1,4.67,30C181.8,503.16,172.08,493.1,165.36,488.1Z" fill="#b38e54"/><path d="M741.87,296.64c3.31,148.67-148.49,272.63-339,276.87S55.1,460.67,51.79,312s148.48-288.11,339-292.36S738.56,148,741.87,296.64Z" fill="#b38e54"/><path d="M349.76,412.92c-39.24,60.38-113.2,81.93-165.2,48.14S122.2,350.93,161.44,290.55s143.71-94.1,182.4-64.77C382.1,254.79,389,352.55,349.76,412.92Z" fill="#6a532d"/><path d="M446.81,412.92C486,473.3,560,494.85,612,461.06s62.35-110.13,23.12-170.51-143.72-94.1-182.41-64.77C414.46,254.79,407.57,352.55,446.81,412.92Z" fill="#6a532d"/><ellipse cx="398.28" cy="453.51" rx="107.87" ry="87.87" fill="#fcddb4"/><ellipse cx="398.28" cy="434.69" rx="27.96" ry="24.67" fill="#6a532d"/><circle cx="296.79" cy="352.06" r="44.53" transform="translate(-114.04 560.02) rotate(-76.72)" fill="#fff"/><circle cx="305.27" cy="350.87" r="35.91" fill="#6a532d"/><circle cx="497.81" cy="352.06" r="44.53" transform="translate(-103.14 455.12) rotate(-45)" fill="#fff"/><circle cx="489.33" cy="350.87" r="35.91" fill="#6a532d"/><path d="M335.11,465.22s53.74,76.6,126.34,0" fill="none" stroke="#6a532d" stroke-linecap="round" stroke-linejoin="round" stroke-width="10.29"/></svg>