<svg xmlns="http://www.w3.org/2000/svg" viewBox="0 0 661.86 649.77"><circle cx="530.79" cy="93.91" r="93.9" transform="translate(89.06 402.83) rotate(-45)" fill="#fdd66e"/><path d="M568.66,33.55a93.86,93.86,0,0,1,35,119.46A93.87,93.87,0,1,0,451.25,44a94.75,94.75,0,0,0-5.39,10A93.86,93.86,0,0,1,568.66,33.55Z" fill="#7f6b34"/><circle cx="519.11" cy="112.53" r="71.92" transform="translate(246.75 568.55) rotate(-71.38)" fill="#f1bd8d"/><circle cx="130.89" cy="93.91" r="93.9" transform="translate(-28.07 120.06) rotate(-45)" fill="#fdd66e"/><path d="M93,33.55A93.86,93.86,0,0,0,58,153,93.87,93.87,0,1,1,210.43,44a94.75,94.75,0,0,1,5.39,10A93.87,93.87,0,0,0,93,33.55Z" fill="#7f6b34"/><circle cx="142.57" cy="112.53" r="71.92" transform="translate(-28.46 51.4) rotate(-18.62)" fill="#f1bd8d"/><path d="M661.68,331.63c0,151.05-148.12,318.14-330.84,318.14S0,482.68,0,331.63,148.12,35.82,330.84,35.82,661.68,180.59,661.68,331.63Z" fill="#fdd66e"/><path d="M330.84,412c-92.53,0-169.28,92-184,181.06,52.61,34.8,115.89,56.68,184,56.68s131.38-21.88,184-56.68C500.11,504,423.36,412,330.84,412Z" fill="#f6edc1"/><path d="M387,457.53c0,19-25.14,44.36-56.16,44.36s-56.17-25.32-56.17-44.36,25.15-34.46,56.17-34.46S387,438.5,387,457.53Z" fill="#7f6b34"/><path d="M219.93,116.81A74.54,74.54,0,0,1,229,103.49a112.36,112.36,0,0,1,11.21-11.68A130.15,130.15,0,0,1,267,73.06a134.27,134.27,0,0,1,64.47-15.83c2.82.06,5.64,0,8.45.3s5.62.48,8.41.81,5.55.9,8.31,1.4l2.08.38,2,.5c1.36.33,2.72.68,4.07,1l4.05,1.06a19.31,19.31,0,0,1,2,.62l2,.68c2.64.89,5.26,1.83,7.86,2.77s5.08,2.23,7.59,3.37L392,71.89c1.22.64,2.42,1.32,3.62,2,2.4,1.32,4.77,2.69,7.13,4.05s4.53,3,6.75,4.6A131.51,131.51,0,0,1,422.2,92.6a76.26,76.26,0,0,1,5.8,5.58c1.85,1.95,3.72,3.84,5.5,5.83a137,137,0,0,1,9.7,12.8c-5.22-1.59-10.07-3.51-14.88-5.36-2.47-.81-4.85-1.72-7.25-2.58s-4.69-1.84-7.11-2.56c-4.8-1.53-9.36-3.36-14.09-4.66-2.34-.7-4.64-1.47-6.94-2.18s-4.66-1.21-6.95-1.86c-1.15-.33-2.3-.63-3.44-1l-3.47-.77-6.86-1.61c-4.62-.75-9.13-1.86-13.71-2.37-1.14-.15-2.28-.31-3.42-.5l-1.7-.26L351.67,91c-2.28-.2-4.55-.45-6.82-.68L338,89.93c-2.27-.23-4.55-.12-6.82-.16a202.53,202.53,0,0,0-27.32,1.63,246.85,246.85,0,0,0-27.49,5.38c-2.31.59-4.6,1.26-6.92,1.87l-7,2c-4.62,1.48-9.31,3-14,4.69C239.14,108.71,229.77,112.54,219.93,116.81Z" fill="#7f6b34"/><path d="M238.53,168.88a62.12,62.12,0,0,1,7.6-11.1,93.27,93.27,0,0,1,9.34-9.73,108.07,108.07,0,0,1,22.27-15.63,111.65,111.65,0,0,1,53.72-13.19c2.35,0,4.7,0,7,.25s4.68.4,7,.67,4.63.75,6.93,1.17l1.72.31,1.71.42c1.13.27,2.26.57,3.39.86l3.38.89c1.13.27,2.21.72,3.31,1.07,2.2.75,4.38,1.54,6.55,2.32s4.23,1.86,6.33,2.8l3.12,1.45,3,1.66c2,1.1,4,2.25,5.94,3.38s3.77,2.53,5.63,3.83a108.57,108.57,0,0,1,10.56,8.39c1.7,1.44,3.27,3.06,4.84,4.65s3.1,3.2,4.58,4.86a113.19,113.19,0,0,1,8.08,10.67c-4.35-1.33-8.39-2.93-12.39-4.47-2.06-.67-4.05-1.43-6.05-2.15s-3.89-1.55-5.92-2.13c-4-1.27-7.8-2.8-11.74-3.89l-5.79-1.81c-1.94-.52-3.88-1-5.79-1.56l-2.86-.8-2.9-.64-5.71-1.35c-3.86-.62-7.61-1.54-11.43-2-.95-.13-1.9-.26-2.85-.41l-1.41-.22-1.43-.13c-1.9-.16-3.79-.37-5.68-.57l-5.69-.3c-1.89-.19-3.79-.1-5.68-.14a169.12,169.12,0,0,0-22.76,1.36,202.37,202.37,0,0,0-22.92,4.49c-1.92.49-3.83,1-5.77,1.55L274,155.45c-3.84,1.24-7.75,2.49-11.64,3.91C254.55,162.13,246.74,165.31,238.53,168.88Z" fill="#7f6b34"/><circle cx="183.32" cy="363.41" r="38.33" transform="translate(-203.27 236.06) rotate(-45)" fill="#7f6b34"/><circle cx="478.36" cy="363.41" r="38.33" transform="translate(14.77 745.48) rotate(-76.72)" fill="#7f6b34"/><path d="M137.76,209.38,270.1,289.65S243,176.83,137.76,209.38Z" fill="#7f6b34"/><path d="M522.83,209.38,390.5,289.65S417.62,176.83,522.83,209.38Z" fill="#7f6b34"/><path d="M53,328.74,3.85,289.23A238.39,238.39,0,0,0,0,331.63c0,6.25.35,12.54.85,18.83L49.54,342A7.52,7.52,0,0,0,53,328.74Z" fill="#7f6b34"/><path d="M59.89,408.05,11,404.89a312.25,312.25,0,0,0,19.67,49.95l34-34A7.52,7.52,0,0,0,59.89,408.05Z" fill="#7f6b34"/><path d="M104.81,495.48,68.6,515a369.69,369.69,0,0,0,35.45,39.27l11.66-50.48A7.53,7.53,0,0,0,104.81,495.48Z" fill="#7f6b34"/><path d="M608.9,328.74,658,289.23a238.39,238.39,0,0,1,3.85,42.4c0,6.25-.34,12.54-.84,18.83L612.32,342A7.52,7.52,0,0,1,608.9,328.74Z" fill="#7f6b34"/><path d="M602,408.05l48.86-3.16a313.19,313.19,0,0,1-19.67,49.95l-34-34A7.53,7.53,0,0,1,602,408.05Z" fill="#7f6b34"/><path d="M557.05,495.48,593.26,515a367.53,367.53,0,0,1-35.45,39.27L546.16,503.8A7.52,7.52,0,0,1,557.05,495.48Z" fill="#7f6b34"/><path d="M330.84,214.62c15.62,0,28.28-60.25,28.28-134.57a429.41,429.41,0,0,0-1.91-43.12c-8.71-.67-17.49-1.11-26.37-1.11s-17.66.44-26.37,1.11a429.41,429.41,0,0,0-1.91,43.12C302.56,154.37,315.22,214.62,330.84,214.62Z" fill="#7f6b34"/><line x1="331.38" y1="484.9" x2="331.38" y2="535.15" fill="none" stroke="#7f6b34" stroke-linecap="round" stroke-miterlimit="10" stroke-width="17.36"/><line x1="331.56" y1="534.43" x2="272.45" y2="568.96" fill="none" stroke="#7f6b34" stroke-linecap="round" stroke-miterlimit="10" stroke-width="17.36"/><line x1="332.1" y1="534.43" x2="391.22" y2="568.96" fill="none" stroke="#7f6b34" stroke-linecap="round" stroke-miterlimit="10" stroke-width="17.36"/></svg>