<svg xmlns="http://www.w3.org/2000/svg" viewBox="0 0 610.54 488.52"><path d="M170.62,30.08c23.95,32.46,11.47,82.32-27.89,111.37s-90.68,26.27-114.64-6.19S8.92,46.52,48.27,17.48,146.66-2.38,170.62,30.08Z" fill="#facd8f"/><ellipse cx="98.34" cy="80.58" rx="51.92" ry="42.83" transform="translate(-28.63 74.14) rotate(-36.43)" fill="#fff6ca"/><path d="M446.28,30.08c-24,32.46-11.47,82.32,27.89,111.37s90.68,26.27,114.64-6.19S608,46.52,568.62,17.48,470.24-2.38,446.28,30.08Z" fill="#facd8f"/><ellipse cx="518.56" cy="80.58" rx="42.83" ry="51.92" transform="translate(145.81 449.98) rotate(-53.57)" fill="#fff6ca"/><path d="M610.54,283.62c0,150.26-136.67,204.9-305.27,204.9S0,433.88,0,283.62,136.67,11.56,305.27,11.56,610.54,133.37,610.54,283.62Z" fill="#facd8f"/><path d="M306.19,124.34c17.64,0,31.94-32.93,31.94-73.56a151.49,151.49,0,0,0-4.61-38c-9.31-.76-18.72-1.17-28.25-1.17-8.88,0-17.67.36-26.37,1a151.55,151.55,0,0,0-4.65,38.2C274.25,91.41,288.55,124.34,306.19,124.34Z" fill="#d2a06e"/><path d="M397.37,124.34c17.64,0,31.94-32.93,31.94-73.56,0-5.55-.31-10.92-.82-16.12A329.89,329.89,0,0,0,369,17.51a155.19,155.19,0,0,0-3.53,33.27C365.42,91.41,379.73,124.34,397.37,124.34Z" fill="#d2a06e"/><path d="M213.18,124.34c17.64,0,31.94-32.93,31.94-73.56a154.55,154.55,0,0,0-3.53-33.27,330.12,330.12,0,0,0-59.54,17.15c-.51,5.2-.82,10.57-.82,16.12C181.23,91.41,195.53,124.34,213.18,124.34Z" fill="#d2a06e"/><circle cx="150.87" cy="280.95" r="38.61" transform="translate(-108.43 95.32) rotate(-26.17)" fill="#9a7154"/><circle cx="459.67" cy="280.95" r="38.61" transform="translate(5.1 570.09) rotate(-63.89)" fill="#9a7154"/><path d="M218.8,351.72c2,15.87,14.68,29.83,30.29,33.28a69.37,69.37,0,0,0,29.82-1.23c14.66-4.58,25.82-18.72,26.85-34" fill="none" stroke="#9a7154" stroke-linecap="round" stroke-miterlimit="10" stroke-width="13.47"/><path d="M306.32,350.3c2,15.86,14.68,29.83,30.3,33.27a58.24,58.24,0,0,0,14.92,1,57.51,57.51,0,0,0,14.89-2.24,39.33,39.33,0,0,0,26.85-34" fill="none" stroke="#9a7154" stroke-linecap="round" stroke-miterlimit="10" stroke-width="13.47"/><path d="M330.35,324.29a25.36,25.36,0,0,1-50.71.83c-.23-14,10.19-15.34,24.19-15.56S330.12,310.28,330.35,324.29Z" fill="#9a7154"/></svg>