<svg xmlns="http://www.w3.org/2000/svg" width="64" height="64"><path fill="#E81C27" d="M31.873 13.802C29.565 13.802 3 5.026 3 30.015 3 45.183 18.712 62 25.569 62c3.11 0 4.499-1.99 6.304-1.99 1.838 0 2.159 1.99 6.141 1.99C44.873 62 61 43.441 61 30.015 61 5 34.181 13.802 31.873 13.802z"/><path fill="#92C932" d="M33.994 10.567c2.872-12.742 20.49-7.498 20.49-7.498-8.056 13.564-20.49 7.498-20.49 7.498z"/><path fill="#7AB51D" d="M33.994 10.567s12.808 6.077 20.49-7.498c0 0-11.413 1.714-20.49 7.498z"/><path fill="#A6E639" d="M54.24 3.069c-11.922 1.037-23.705 8.539-22.764 9.108 1.279.775 6.206-5.748 22.764-9.108z"/><path fill="#B47D56" d="M32.671 18C30.122 15.463 31 5.923 32.949 5.923c3.228 0-2.389 3.301-.278 12.077z"/><path fill="#B00505" d="M32 16.95c-5.385-.068-7.504-2.782-13.678-1.692 6.553 0 8.026 3.574 13.678 3.742 5.652-.168 7.063-3.742 13.678-3.742-6.172-1.09-8.293 1.623-13.678 1.692z"/><path fill="#F46C60" d="M14.154 22.291c-2.826-1.397-5.118 2.51-3.746 5.812C13.478 35.485 24 31.063 24 25.685c0-2.944-3.496-.255-9.846-3.394z"/><path fill="#C21413" d="M31.423 57.667C17 57.667 10 49.372 10 49.372 15.084 56.702 21.721 62 25.569 62c3.11 0 4.499-1.99 6.304-1.99 1.838 0 2.159 1.99 6.141 1.99C44.873 62 61 43.441 61 30.015c0 13.514-16.761 27.652-29.577 27.652z"/></svg>