<svg xmlns="http://www.w3.org/2000/svg" width="64" height="64">
    <path fill="#45332C" d="M30.811 59.151c-1.844-1.58-3.444-10.154-3.978-4.592-.46 4.79 7.576 7.694 3.978 4.592zm.569-20.43c1.108.183 1.755 8.211-.089 9.403-.746.48-4.732-1.702-3.264-2.065 1.786-.441 2.629-7.459 3.353-7.338z"/>
    <path fill="#45332C" d="M30.223 45.759c1.309.625.287 7.391-.992 8.852-.318.361-4.845-.088-4.334-.73 2.082-2.635 4.08-8.714 5.326-8.122z"/>
    <path fill="#F59E01" d="M29.596 45.417l5.98-16.431c-4.959-.436-6.852 2.519-8.232 6.307-1.379 3.792-1.827 7.272 2.252 10.124z"/>
    <path fill="#785647" d="M33.993 47.604c.226.083.438.151.658.23l6.351-17.447c-.218-.083-.428-.167-.652-.249-1.859-.676-3.424-1.032-4.773-1.151l-5.98 16.431c1.11.775 2.538 1.509 4.396 2.186z"/>
    <path fill="#F59E01" d="M40.005 49.433l6.125-16.831a54.612 54.612 0 0 0-5.128-2.215l-6.351 17.447a54.679 54.679 0 0 0 5.354 1.599z"/>
    <path fill="#785647" d="M45.596 50.378l5.426-14.906c-1.373-.959-2.99-1.924-4.892-2.87l-6.125 16.831c2.063.497 3.923.798 5.591.945z"/>
    <path fill="#F59E01" d="M51.588 50.224l3.924-10.781c-1.093-1.266-2.551-2.611-4.49-3.971l-5.426 14.906c2.36.207 4.342.111 5.992-.154z"/>
    <path fill="#785647" d="M55.512 39.442l-3.924 10.781c5.059-1.461 6.201-1.045 6.201-1.045s1.236-5.664-2.277-9.736z"/>
    <path fill="#D47706" d="M29.337 31.41c-.84 1.069-1.456 2.411-1.993 3.883-1.379 3.792-1.827 7.272 2.252 10.124l2.554-7.015c-1.546-1.574-2.563-3.775-2.813-6.992z"/>
    <path fill="#45332C" d="M32.149 38.402l-2.554 7.015c1.111.776 2.539 1.51 4.397 2.187.226.083.438.151.658.23l2.381-6.54c-1.906-.675-3.58-1.565-4.882-2.892z"/>
    <path fill="#D47706" d="M37.032 41.294l-2.381 6.54a54.679 54.679 0 0 0 5.354 1.599l2.435-6.69c-1.916-.428-3.748-.861-5.408-1.449z"/>
    <path fill="#45332C" d="M42.439 42.742l-2.435 6.69c2.063.497 3.923.799 5.591.945l2.303-6.325c-1.836-.515-3.682-.913-5.459-1.31z"/>
    <path fill="#D47706" d="M47.898 44.053l-2.303 6.325c2.36.207 4.342.111 5.992-.154l1.538-4.227c-1.688-.835-3.453-1.447-5.227-1.944z"/>
    <path fill="#45332C" d="M53.126 45.997l-1.538 4.227c5.059-1.461 6.201-1.045 6.201-1.045-1.439-1.345-3.016-2.367-4.663-3.182z"/>
    <path fill="#FEEC9A" d="M34.86 30.955c17.021 3.003 23.758 14.181 19.981 11.131C44.511 33.74 31.1 30.291 34.86 30.955z"/>
    <path opacity=".6" fill="#8FBEDB" d="M46.587 2C27.093 8.418 23.169 30.107 23.169 30.107S56.108 27.914 46.587 2z"/>
    <path opacity=".6" fill="#8FBEDB" d="M24.995 30.819S64 39.474 61.92 11.256c-24.857-.166-36.925 19.563-36.925 19.563z"/>
    <path opacity=".6" fill="#8FBEDB" d="M23.027 30.491s18.729 18.111 23.688 2.097c-13.087-8.639-23.688-2.097-23.688-2.097z"/>
    <path fill="#45332C" d="M13.702 37.554c-.532.002.728 1.791 1.256 1.741 2.591-.242 6.869-3.397 6.349-4.232-.399-.644-4.747 2.489-7.605 2.491z"/>
    <path fill="#45332C" d="M15.017 38.512c-.562-.492-2.439.812-2.552 1.555-.03.182 1.363 2.097 1.432 1.792.262-1.24 1.652-2.878 1.12-3.347z"/>
    <path fill="#45332C" d="M13.29 44.334c-.264-1.828 1.071-4.82-.315-4.177-1.193.554.831 7.751.315 4.177zm5.742-1.822c-.465.249 1.438 1.227 1.879.938 2.165-1.412 4.507-6.152 3.683-6.643-.639-.376-3.054 4.376-5.562 5.705z"/>
    <path fill="#45332C" d="M20.054 42.599c-.821-.317-2.376 1.893-2.2 2.761.044.215 2.369 1.774 2.318 1.41-.21-1.485.665-3.869-.118-4.171z"/>
    <path fill="#45332C" d="M20.42 49.558c-.865-1.604-.646-4.828-1.709-3.764-.918.92 3.398 6.897 1.709 3.764z"/>
    <path fill="#785647" d="M35.788 60.837c-2.076-1.261-5.049-9.459-4.671-3.884.324 4.801 8.727 6.36 4.671 3.884zm-2.466-21.203c-2.578 2.234-8.137 1.306-8.158 2.508-.028 1.56 5.481 2.584 7.941.887.504-.346.698-3.81.217-3.395z"/>
    <path fill="#785647" d="M33.027 40.584c1.125.001 3.066 7.818 1.441 9.294-.658.596-4.945-.91-3.556-1.508 1.693-.724 1.383-7.787 2.115-7.786z"/>
    <path fill="#785647" d="M33.031 47.715c1.394.407 1.484 7.251.461 8.897-.256.409-4.795.702-4.396-.016 1.626-2.936 2.609-9.259 3.935-8.881z"/>
    <path fill="#F59E01" d="M34.758 37.181l-2.306-.631c.864-1.354 2.199-1.514 2.199-1.514-.395-3.051-3.235-4.039-3.235-4.039.465.005 1.998-.242 1.998-.242-1.67-3.104-4.794-3.274-6.007-3.401l1.632-1.193s-3.107-.731-5.105.753c.322-.446 1.229-1.94 1.229-1.94-8.01 1.073-12.037 12.073-7.093 16.517 0 0 .991-.534 1.324-1.069.9 2.557 3.079 2.812 3.079 2.812l.17-1.323c1.066.644 2.628 2.087 5.367 1.323 0 0-.299-1.026-.623-1.362 0 0 2.465 1.135 4.899-.695 0 0-.812-.889-1.341-.983 2.436-.343 3.813-3.013 3.813-3.013z"/>
    <path fill="#D47706" d="M32.093 36.155l-1.813-.496c.68-1.064 1.729-1.189 1.729-1.189-.311-2.398-2.544-3.175-2.544-3.175.366.004 1.571-.19 1.571-.19-1.313-2.44-3.769-2.573-4.722-2.673l1.282-.938s-2.441-.574-4.013.592c.254-.351.967-1.525.967-1.525-6.295.843-9.461 9.488-5.575 12.981 0 0 .78-.42 1.042-.84.706 2.009 2.42 2.21 2.42 2.21l.133-1.041c.838.507 2.065 1.641 4.219 1.041 0 0-.235-.808-.49-1.071 0 0 1.938.892 3.852-.546 0 0-.639-.699-1.055-.773 1.915-.269 2.997-2.367 2.997-2.367z"/>
    <path fill="#45332C" d="M7.063 35.351c-1.656 1.534-2.095 4.515 1.39 2.296l-1.39-2.296zm7.799-8.192c-3.374-4.48-7.161-5.319-7.312-4.963-1.668 3.948-5.354 6.163-5.154 6.742.334.962 5.577-3.045 5.576-5.543.002-.452 3.488 1.216 5.531 4.173.205.291 1.571-.122 1.359-.409z"/>
    <path fill="#8C4B0D" d="M19.292 35.72C9.199 40.356 3.633 38.675 8.596 30.813c10.568-16.723 21.305.04 10.696 4.907z"/>
    <path fill="#AB5C10" d="M22.942 30.03c.556-4.078-3.889-8.242-9.134-3.623 4.133-1.306 7.519.62 9.134 3.623z"/>
    <path fill="#302C3B" d="M13.781 35.694c-4.857 2.408-7.391-.631-3.896-4.586 8.671-9.815 14.179-.511 3.896 4.586z"/>
    <path fill="#4E5E67" d="M9.421 35.493c-1.122.22 1.636 1.248 4.378-.13 5.382-2.699 5.928-7.035 4.022-8.052-.534-.285-.212 6.574-8.4 8.182z"/>
    <path fill="#FFF" d="M8.616 34.384c-.113.524 5.311-5.686 4.967-5.793-.192-.062-4.288 2.675-4.967 5.793z"/>
    <path fill="#45332C" d="M16.047 25.206c-2.055-6.019-5.842-8.27-6.128-7.943-3.18 3.647-7.933 4.71-7.919 5.404.02 1.149 7.076-1.28 7.951-3.967.158-.485 3.335 2.554 4.496 6.459.115.386 1.735.432 1.6.047z"/>
    <path fill="#785647" d="M14.243 39.243c-.521.104 1.06 1.615 1.569 1.464 2.495-.74 6.077-4.667 5.407-5.385-.515-.553-4.173 3.363-6.976 3.921z"/>
    <path fill="#785647" d="M15.692 39.397c-.646-.374-2.234 1.268-2.202 2.019.008.184 1.745 1.791 1.752 1.481.021-1.266 1.065-3.144.45-3.5z"/>
    <path fill="#785647" d="M15.131 45.442c-.613-1.743.115-4.938-1.121-4.036-1.063.777 2.319 7.444 1.121 4.036zm4.468-.691c-.387.409 1.872.754 2.221.311 1.711-2.165 2.471-7.762 1.469-7.976-.775-.165-1.604 5.468-3.69 7.665z"/>
    <path fill="#785647" d="M20.756 44.5c-.941-.041-1.764 2.724-1.289 3.542.116.204 3 .99 2.824.64-.717-1.431-.641-4.142-1.535-4.182z"/>
    <path fill="#785647" d="M23.49 51.421c-1.422-1.331-2.295-4.669-3.009-3.229-.617 1.243 5.785 5.828 3.009 3.229z"/>
</svg>
