<svg xmlns="http://www.w3.org/2000/svg" width="64" height="64">
    <path fill="#0FB4D4" d="M59.812 24.264s1.092-6.167-3.535-3.441c0 0-.449-6.322-4.33-1.862 0 0-2.076-3.854-4.387-.272-3.115 4.831-5.186 12.367-3.176 24.987l3.754-2.49c2.699-7.907 12.359-8.759 13.676-13.053.945-3.078-2.002-3.869-2.002-3.869zm-37.718-6.69L12.16 21.22c2.193-12.009 16.625-11.209 16.625-11.209s-6.745 3.197-6.691 7.563z"/>
    <path fill="#0FB4D4" d="M23.711 19.811l-10.498 1.41c4.785-11.246 18.695-7.343 18.695-7.343s-7.286 1.659-8.197 5.933z"/>
    <path fill="#F59E01" d="M2 28.951l5.417-1.441.006 3.605c-.001 0-3.292-.488-5.423-2.164zm5.417-1.441L2 24.771c3.624-2.805 7.676-1.938 7.676-1.938L7.417 27.51zm26.428 25.459h-2.108v7.875c-.332.057-2.148-.098-2.889-.098-1.844 0-3.34 1.254-3.34 1.254h8.336v-9.031zm-8.876 0h-2.107v7.875c-.332.057-2.15-.098-2.891-.098-1.844 0-3.338 1.254-3.338 1.254h8.336v-9.031z"/>
    <path fill="#0FB4D4" d="M54.042 36.193c3.857 0-4.096 17.531-23.311 17.531-13.047 0-23.855-5.194-23.855-21.475 0-10.108 6.391-18.308 19.455-14.979 13.315 3.395 6.461 18.923 27.711 18.923z"/>
    <path fill="#FFF" d="M37.618 51.654c-15.576-.033-13.971-12.007-27.942-11.151 5.119 15.817 27.942 11.151 27.942 11.151z"/>
    <path fill="#018BC9" d="M39.063 29.202c-10.01-9.795-20.209 6.199-7.862 12.553 12.12 6.234 20.379-4.825 20.379-4.825s-6.085-1.432-12.517-7.728z"/>
    <circle fill="#302C3B" cx="15.053" cy="24.924" r="2.5"/>
    <path fill="#FFF" d="M14.213 23.91c0 .833-1 .833-1 0s1-.833 1 0z"/>
</svg>