<svg xmlns="http://www.w3.org/2000/svg" width="64" height="64">
    <path fill="#99A8AE" d="M25.926 2.03c-7.911 1.081-4.304 19.215-.77 19.215 3.407 0 7.423-20.124.77-19.215z"/>
    <path fill="#BEC3CF" d="M28.994 21.698c-4.154-7.6-19.453-.252-20.49 6.233-.344 2.148 4.41 5.324 7.522 4.924 1.123 2.883-3.813 6.978-.368 13.453 1.998 3.757 3.438 5.963 2.442 12.238-2.291.33-2.784 2.576-2.247 3.453h5.965c.303-2.121 2.508-6.205 2.508-9.207 0 0-.027 4.433 3.025 5.043-1.729.121-5.188 1.361-4.535 4.164h21.396c4.087-2.842 7.665-12.412 3.847-19.256-6.095-10.93-16.643-7.525-18.73-11.049-2.039-3.437 1.956-5.804-.335-9.996z"/>
    <path fill="#99A8AE" d="M27.352 57.836s-5.057-9.527 5.447-14.612c-9.035.321-11.932 13.071-5.447 14.612zM8.525 28.392c2.812 2.642 7.025 5.164 15.801 3.644-5.597 2.7-14.158 1.579-15.801-3.644z"/>
    <path fill="#302C3B" d="M22.355 23.591c.445 2.744-2.326 4.127-5.004 2.369.051-2.647 3.295-3.83 5.004-2.369z"/>
    <path fill="#FF8FA8" d="M10.45 31.197c-2.388-1.79-3.116-4.099-1.806-3.884 4.616.758 1.967.616 1.806 3.884z"/>
    <path fill="#FFF" d="M19.361 24.78c-.082.811-1.35.699-1.266-.11.083-.808 1.348-.696 1.266.11z"/>
    <path fill="#BEC3CF" d="M25.19 22.287C21.646 19.604 32.54-.052 37.511 6.873c5.635 7.851-10.404 16.864-12.321 15.414z"/>
    <path fill="#FDE0DA" d="M27.133 20.646C24.395 18.575 33.234 2.921 37.184 8.2c3.829 5.119-8.572 13.565-10.051 12.446z"/>
    <path fill="#F6BEC1" d="M29.845 19.437c-1.88-1.422 1.701-9.252 5.409-12.306-4.295-.031-10.471 11.738-8.121 13.515.43.326 1.784-.16 3.393-1.135-.307.052-.543.031-.681-.074z"/>
    <path fill="#E6EBEF" d="M12.742 28.683c8.778-1.295 10.662.24 10.609.564-.017.106-3.853-.988-10.609-.564zm-.31 1.111c10.764-.047 12.715 2.14 12.588 2.526-.041.123-4.418-1.866-12.588-2.526z"/>
    <path fill="#BEC3CF" d="M11.756 39.595c1.477-.382 2.664.085 2.664.085-2.078.78-2.867 3.434-2.867 3.434 1.532-.898 2.557-.543 2.557-.543-1.228 1.428-.898 3.195-.898 3.195 1.502-1.021 3.55-.41 3.55-.41l-.237-8.909c-3.322 1.02-4.769 3.148-4.769 3.148z"/>
    <path fill="#E6EBEF" d="M50.188 50.821c1.007-.432.513 2.587.513 2.587s1.953-1.385 2.436-.951c.488.438-.744 2.493-.744 2.493s2.395.078 2.627.708c.215.583-1.441 2.037-1.441 2.037s2.291.183 2.416.797c.135.665-2.076 1.791-2.076 1.791s1.777.76-.43 1.427c-2.855.862-10.738-.301-8.668-2.155 2.999-2.688 2.331-7.431 5.367-8.734z"/>
</svg>
