<svg xmlns="http://www.w3.org/2000/svg" width="64" height="64">
    <path fillRule="evenodd" clipRule="evenodd" fill="#F59E01" d="M57.103 47.902c-.275-1.708-2.512-5.23-2.412-7.789.311-7.975-11.943 2.093-11.943 2.093 3.33 5.737 6.763 7.037 8.969 8.466 1.198.776-.863 6.17-1.613 7.42-.605 1.011-5.234-.261-5.234 3.908h8.93c3.751-5.773 3.882-10.529 3.303-14.098zm-29-9.199c-.419 5.926 4.587 11.588 5 19.389.078 1.473-5.419.119-5.419 3.908h8.052c2.752-9.443 2.624-17.371.602-23.408-.001 0-8.144-1.189-8.235.111z"/>
    <path fill="#F9C802" d="M50.277 22.67c5.356-.371 7.618-5.491 7.741-8.897.145-4.038-1.213-6.197-4.598-7.805-4.408-2.096-9.984-.156-15.698 5.468-1.687 1.657-3.749-.636-2.065-2.294C44.645.296 51.428 1.559 54.668 3.1c4.468 2.124 7.515 6.639 7.323 11.92-.168 4.678-4.287 9.154-4.35 13.814l-7.364-6.164z"/>
    <path fillRule="evenodd" clipRule="evenodd" fill="#F9C802" d="M61.728 47.902c-.275-1.707-2.512-5.23-2.412-7.788.311-7.976 1.247-14.085-6.49-16.905-4.023-1.461-16.551-3.479-23.804-2.332-1.844.291-9.226-9.519-12.546-11.559-.945-.58-1.563-3.713-5.084-5.738-1.54-.882.279 2.913-1.084 5.989-5.58 1.338-4.525 6.99-7.674 7.712-1.005.23-.156 3.291 1.329 4.646 1.358 1.241 4.835.995 6.335 2.872 1.893 2.368 1.446 5.357 4.364 8.803 4.762 5.61 8.41 7.062 9.195 8.103 1.961 2.62 1.687 13.568 0 16.389-.756 1.267-5.419.118-5.419 3.907h8.052c4.129-7.496 4.816-14.689 5.602-18.407 0 0 6.555 1.135 15.281-1.386 3.33 5.737 6.763 7.037 8.969 8.465 1.198.777-.863 6.17-1.613 7.421-.604 1.011-5.232-.261-5.232 3.907h8.93c3.749-5.774 3.88-10.529 3.301-14.099z"/>
    <path fillRule="evenodd" clipRule="evenodd" fill="#302C3B" d="M6.443 14.148s1.696-.216 2.417 1.189c0 0-.883 1.672-2.324 1.025-.78-.348-.093-2.214-.093-2.214z"/>
    <path fillRule="evenodd" clipRule="evenodd" fill="#AB5C10" d="M10.94 3.949s3.08 3.185 2.75 7.061c0 0-3.241-.969-2.947-1.533.873-1.642.197-5.528.197-5.528z"/>
    <path fillRule="evenodd" clipRule="evenodd" fill="#FF717F" d="M3.099 17.127s-1.833-.128-.765 1.934c.491.959.299-1.663.765-1.934z"/>
    <path fill="#302C3B" d="M3.962 21.927c-.329-.2-.608-.687-.608-.687s1.941.512 3.03-.545c-.446 1.56-2.422 1.232-2.422 1.232z"/>
    <path fill="#D47706" d="M35.602 20.561s-3.712-.268-5.732.199c.411 3.543 2.99 6.936 2.99 6.936s2.334-3.622 2.742-7.135z"/>
    <path fill="#E6EBEF" d="M47.372 42.207s-9.484-.488-15.281-2.38c.32 1.367 0 3.766 0 3.766s9.201 1.54 15.281-1.386zm-23.65-.656c-10.169-9.014-9.161-12.652-13.424-16.752 2.595 6.126 3.471 12.756 13.424 16.752z"/>
    <path fill="#D47706" d="M27.509 20.129c-1.39-1.451-2.984-2.857-2.984-2.857-2.271 1.363-4.666 4.476-4.666 4.476s5.154-.865 7.65-1.619zm-5.658-5.717a35.692 35.692 0 0 0-3.085-3.19c-1.663 1.677-2.657 4.733-2.657 4.733s3.755-.344 5.742-1.543zm21.312 6.782s-2.639-.563-5.275-.524c.412 3.543 2.243 9.643 2.243 9.643s2.624-5.601 3.032-9.119zm6.588 1.158c-1.972-.436-4.504-.855-4.504-.855.416 3.538 2.125 7.876 2.125 7.876s1.977-3.51 2.379-7.021zM4.034 18.08c4.783-.77 5.808.142 5.779.334-.009.063-2.099-.586-5.779-.334zm-.169.659c5.863-.028 6.926 1.271 6.856 1.499-.021.075-2.404-1.107-6.856-1.499z"/>
    <path fill="#FFF" d="M6.901 14.725c-.055.548-.451.482-.395-.066.041-.419.436-.352.395.066z"/>
</svg>
