<svg xmlns="http://www.w3.org/2000/svg" width="64" height="64">
    <path fill="#F59E01" d="M18.892 51.179c1.229-1.772 7.056-4.757 7.056-4.757l-2.906-1.871s-3.586 3.448-6.797 3.91c-.36.051-3.249-2.018-5.715-2.322-.75-.093.83.589 2.828 1.857-2.166-.705-4.653-1.861-7.055-1.718-1.234.074 1.389.735 6.319 3.368-1.549-.205-3.169-.318-4.88.059-1.449.32 6.737 1.168 9.314 2.539 2.301 1.225 2.778 3.248 2.886 2.366.194-1.612-1.287-3.091-1.05-3.431zm19.824 5.838c.074-2.155 1.286-8.563 1.286-8.563h-3.455s.923 5.584-1.529 7.711c-.274.238-3.822.063-6.062 1.141-.681.328 1.018.045 3.384.031-2.202.578-4.92.953-6.862 2.374-.997.729 1.565-.134 7.138-.589-1.413.668-2.837 1.448-4.072 2.691-1.046 1.053 6.298-2.664 9.207-2.906 2.597-.216 4.093 1.227 3.706.428-.711-1.46-2.756-1.905-2.741-2.318z"/>
    <path fill="#FFE12C" d="M42.982 48.568c.546 3.809-10.596 5.404-11.142 1.596-.275-1.921 10.867-3.518 11.142-1.596z"/>
    <path fill="#F9C802" d="M23.136 29.516c-17.497 0-17.497-24.03 0-24.03 17.031-.001 17.031 24.03 0 24.03z"/>
    <path fill="#F9C802" d="M17.538 3.659c1.139 1.502.457 3.551.457 3.551l9.93-.236c-1.138-3.323-3.51-4.771-3.51-4.771.427 1.477-.096 2.665-.096 2.665C23.451 2.789 20.493 2 20.493 2c1.003 1.533.607 2.558.607 2.558-1.592-1.229-3.562-.899-3.562-.899z"/>
    <path fill="#302C3B" d="M18.547 15.891c0 1.578-1.11 2.854-2.479 2.854-1.37 0-2.477-1.277-2.477-2.854 0-1.58 1.106-2.855 2.477-2.855 1.369 0 2.479 1.276 2.479 2.855z"/>
    <path fill="#FFF" d="M15.236 14.734c0 .952-.991.952-.991 0s.991-.952.991 0z"/>
    <path fill="#D47706" d="M6 22.159l6.872-1.726s-.172 2.038-1.475 2.713c0 0-4.087.304-5.397-.987z"/>
    <path fill="#F59E01" d="M12.872 20.433L6 22.159c0-2.428 1.802-5.397 4.24-7.018.129 2.684 2.632 2.416 2.632 5.292z"/>
    <path fill="#F9C802" d="M22.165 49.198C9.101 43.582 6.8 24.397 25.096 21.487c17.838-2.837 17.155 12.705 27.971 10 5.192-1.299 6.197.534 3.434 5.722C50.697 48.1 34.736 54.602 22.165 49.198z"/>
    <path fill="#FFE12C" d="M13.034 29.243C5.583 45.707 27.63 56.885 44.23 48.332c-11.868 2.117-18.193.056-22.485-3.578-6.057-5.129-3.694-11.38-8.711-15.511z"/>
    <path fill="#F59E01" d="M45.672 32.656c13.648 10.147-33.896 14.618-22.044-4.865 7.465-12.27 13.803-1.261 22.044 4.865z"/>
    <path fill="#F9C802" d="M44.939 32.215c10.48 10.202-30.928 11.637-20.59-5.358 6.978-11.468 13.614-1.432 20.59 5.358z"/>
</svg>
