<svg xmlns="http://www.w3.org/2000/svg" width="64" height="64"><path fill="#5E4433" d="M31.292 60.57c-1.163-.844 0-4.896 0-4.896h-3.194s1.168 2.998 0 3.844c-.793.574-3.26-.123-4.384-.123-2.793 0-5.063 2.605-5.063 2.605h12.641s.797-.854 0-1.43z"/><path fill="#B47D56" d="M38.381 60.57c-1.166-.844 0-4.896 0-4.896h-3.195s1.168 2.998 0 3.844c-.792.574-3.26-.123-4.385-.123-2.792 0-5.06 2.605-5.06 2.605h12.64s.796-.854 0-1.43z"/><path fill="#9E6C49" d="M40.623 55.422c.737 3.643 4.219 4.141 5.271 2.146.967-1.834 5.238-.518 4.95-3.359-.336-3.322 5.021-.992 4.742-4.133-.213-2.396 2.605-3.32 2.042-5.451-.746-2.826 3.913-2.971 3.073-5.416-.912-2.658 2.009-4.127.434-6.084-1.98-2.458 2.964-6.509-.256-6.817-3.002-.287.545-5.058-2.327-5.113-3.431-.066-.122-7.779-3.552-6.11-1.579.768-2.238-3.355-4.239-2.125-3.2 1.966-5.174-5.727-6.889-2.063-1.07 2.287-6.793.319-5.533 3.273 1.385 3.25 5.376 2.491 5.244 5.664-.117 2.828 5.936 3.091 4.515 6.474-1.009 2.401 4.078 2.443 1.384 6.829-1.123 1.828-.041 7.156-2.037 8.76.693 4.697-6.167 9.56-6.822 13.525z"/><path fill="#B47D56" d="M40 55.898c1.769-.449 3.914 2.258 5.066.619 1.464-2.082 3.971-1.475 4.147-3.33.304-3.193 4.736-1.803 4.778-3.773.068-3.127 2.522-2.678 2.11-4.643-.706-3.371 3.453-4.137 3.032-5.969-.526-2.291 1.624-3.584.646-5.156-1.663-2.676 1.605-5.237-.296-6.042-3.052-1.292-.741-4.929-2.453-5.208-3.244-.529-.702-5.625-2.476-5.479-2.715.224-1.985-3.889-4.477-2.25-2.531 1.666-4.052-4.154-5.774-2.313-1.684 1.801-5.867-.183-4.165 2.063 1.776 2.344 6.046 1.62 5.589 4.708-.416 2.805 5.389 3.39 4.536 6.345-.8 2.774 4.352 2.52.908 8.404C49.353 36.986 52.204 44 45.28 48.797c-4.583.328-3.552 1.828-5.28 7.101z"/><path fill="#5E4433" d="M3.69 29.55c-3.354.528-.755 9.01 2.123 8.604 2.59-.363 2.091-9.267-2.123-8.604z"/><path fill="#B47D56" d="M20.263 14.517c.359-7.85-5.153-9.251-7.079-.644-8.534 1.594-8.131 10.791-9.689 14.854-1.148 1.229 7.346 8.868 17.738.651 1.895-1.498 8.76-10.364-.97-14.861z"/><path fill="#F5CFA0" d="M23.869 21.458C27.681 34.432 6.253 35.7 4.548 30.312c2.405-5.2 13.632.23 19.321-8.854z"/><path fill="#5E4433" d="M15.517 18.041c-1.963 1.845-2.046 5.098-5.688 5.481.761-3.461 3.725-5.068 5.688-5.481z"/><path fill="#F5CFA0" d="M11.9 18.454c.416 2.126-.813 5.564-5.172 6.411-1.674-5.05 3.71-4.918 5.172-6.411z"/><path fill="#F5CFA0" d="M21.311 18.216c-5.738 2.947-8.828 12.194-14.582 6.648 4.961.001 5.943-6.686 14.582-6.648z"/><path fill="#302C3B" d="M11.206 21.961c.682 2.797-1.792 4.479-4.478 2.903-.207-2.74 2.729-4.257 4.478-2.903zm-7.187 4.815c.701.768.471 3.069.877 4.223-1.758-.632-2.037-3.16-.877-4.223z"/><path fill="#FFF" d="M8.504 23.465c0 .843-1.201.843-1.201 0s1.201-.843 1.201 0z"/><path fill="#45332C" d="M18.981 13.637c-1.041 2.017-1.977 4.955-3.251-.818-1.534-6.945 5.784-4.092 3.251.818z"/><path fill="#B47D56" d="M23.746 20.872c.947 3.367.576 9.086-5.671 11.341-3.171 1.145-8.715-.021-10.562-1.352-3.405-2.452.831 1.673-2.318.709-5.476-1.676 1.821 1.606-2.064.879-3.564-.668 2.606 1.727.723 1.608-2.409-.152-1.553.791.557.791 4.288 0 9.609 4.93 16.364 4.93 9.25 5.455 2.402 17.711 16.634 18.178 17.623-5.06 13.398-38.262-13.663-37.084z"/><path fill="#FFE8BB" d="M27.71 37.813c-6.829 3.586-13.791-.238-18.764-1.734 5.034 2.348 9.199 4.918 12.961 4.811-3.136 7.959 6.677 20.951 15.501 17.066-8.192-.278-13.194-13.958-9.698-20.143z"/><path fill="#5E4433" d="M28.963 22.979c-1.472-.275-3.452-.098-1.938.543 13.021 5.5 18.021 15.837 15.281 29.435-.374 1.859 1.88-.578 2.737-3.426 3.739-12.408-1.665-23.865-16.08-26.552z"/><path fill="#FFE8BB" d="M26.503 23.163c-1.218-.396-2.553 1.063-1.149 1.702 12.069 5.5 17.636 15.036 15.097 28.633-.348 1.861 2.17 1.09 2.846-1.791 3.629-15.459-1.527-23.582-16.794-28.544z"/><path fill="#5E4433" d="M25.844 24.865c-1.191-.398.041 1.104 1.324 1.911 11.768 7.398 12.334 10.472 12.581 24.482.033 1.891.572 4.232 1.236 1.352 3.754-16.278-2.71-23.592-15.141-27.745z"/></svg>