<svg xmlns="http://www.w3.org/2000/svg" width="64" height="64">
    <path fill="#99A8AE" d="M47.459 37.143c5.342 4.984 5.131 8.626 7.971 11.602.553.58-.209 1.783.834 3.115.426.537.305 4.802-.965 5.854-.363.312 1.309 1.053 1.709.806 2.648-1.654.742-5.092 1.576-7.24.297-.773 1.734-2.353 1.271-3.019-6.016-8.776.719-10.194.293-17.757-.222-3.91-15.537 3.996-12.689 6.639z"/>
    <path fill="#302C3B" d="M55.434 57.574c-1.922.516-2.547 2.524-2.547 2.524h2.695s1.709-.387 1.873-1.912c-1.742.205-2.021-.612-2.021-.612z"/>
    <path fill="#99A8AE" d="M25.74 36.477c-.035 4.673 2.195 7.272 1.622 12.268-.259 2.256 1.631 5.253-.132 8.97-.203.44 1.309 1.053 1.709.806 2.649-1.654.133-5.103 1.095-7.197.875-1.912.232-11.634 1.488-16.393.962-3.643-5.754-2.365-5.782 1.546z"/>
    <path fill="#302C3B" d="M27.366 57.574c-1.922.516-2.547 2.524-2.547 2.524h2.695s1.708-.387 1.873-1.912c-1.742.205-2.021-.612-2.021-.612z"/>
    <path fill="#CFD8DD" d="M12.826 33.888c.416 3.126 3.894 4.007 4.535 5.726 3.723 9.969 11.221 5.876 13.333 5.769 3.057-.172 3.664 2.471 12.494.698 3.584-.72 11.775-1.687 14.303-4.361 3.941-4.168 4.074-14.942.828-17.982-4.271-4.007-12.762.14-27.373.387-2.004.032-4.604-1.536-9.182.226-2.088.816-7.29-1.332-8.938.204-1.695 1.577-.305 7.012 0 9.333z"/>
    <path fill="#CFD8DD" d="M21.171 38.389c-.034 4.662 2.195 7.272 1.623 12.268-.259 2.256 1.631 5.253-.131 8.97-.204.43 1.308 1.053 1.708.806 2.648-1.654.134-5.103 1.095-7.197.875-1.912.232-11.634 1.488-16.393.964-3.654-5.753-2.375-5.783 1.546z"/>
    <path fill="#302C3B" d="M22.798 59.486C20.876 60.002 20.252 62 20.252 62h2.693s1.709-.376 1.873-1.901c-1.74.204-2.02-.613-2.02-.613z"/>
    <path fill="#99A8AE" d="M26.062 46.273c-.158-2.524.423-6.821.423-6.821 1.62 4.963 3.23 5.854 11.162 4.63-1.564.795-3.197.978-3.197.978 2.527 2.922 9.986-1.354 11.684.483 0 0-6.561 2.535-13.533.548-2.742-.774-4.397.601-6.539.182zm-5.453-1.622c1.143-.73.594-5.199.594-5.199s.362 3.169 1.317 6.349c0 0-.769-.194-1.911-1.15zm26.12-1.568c-1.123-2.363-2.693-4.125-2.693-4.125 3.452.612 4.833 4.544 2.693 4.125zm10.914-3.352c1.766-2.009 3.207-10.291 1.127-13.267 2.313 1.214 3.119 10.012-1.127 15.211-.379.463-.375-.794 0-1.944z"/>
    <path fill="#4E5E67" d="M21.171 24.499c-7.596 13.224 9.79 20.421 7.219 6.735-.789-4.2 6.461-1.235 1.985-7.144-5.096-1.901-9.204.409-9.204.409zm17.11 13.782c-.855.559-4.154.816-4.777 0-2.012-2.621 10.777-3.91 4.777 0z"/>
    <path fill="#D4666F" d="M47.82 51.537c-.756 0-.688-5.092.154-5.092 1.012 0 .897 5.092-.154 5.092zm1.807-.558c-.756 0-.686-5.103.156-5.103 1.01 0 .895 5.103-.156 5.103z"/>
    <path fill="#F78790" d="M42.25 45.253c4.43 6.134 18.361 3.309 14.936-7.53-8.237 6.842-11.735 4.2-14.936 7.53z"/>
    <path fill="#D4666F" d="M42.25 45.253c4.621 6.467 18.361 3.309 14.936-7.53.26 4.77-1.541 10.441-8.582 4.748 0 0-1.229.462-1.875.612 0 0 1.084 2.653 2.127 4.082-.001 0-3.21.29-6.606-1.912z"/>
    <path fill="#CFD8DD" d="M44.131 39.055c5.344 4.974 5.133 8.626 7.973 11.602.553.58-.209 1.783.834 3.104.424.548.303 4.813-.967 5.865-.363.312 1.309 1.053 1.709.806 2.65-1.654.744-5.092 1.578-7.251.295-.763 1.732-2.342 1.271-3.019-6.016-8.766 2.166-12.053 1.738-19.615-.22-3.91-16.982 5.854-14.136 8.508z"/>
    <path fill="#302C3B" d="M52.107 59.486C50.186 60.002 49.561 62 49.561 62h2.695s1.709-.376 1.873-1.901c-1.742.204-2.022-.613-2.022-.613z"/>
    <path fill="#CFD8DD" d="M52.887 22.544c6.52 0 9.318 1.482 9.102 6.467-.189 4.372-1.813 12.504-1.25 17.467.041.365-1.281-.193-1.332-.559-.617-4.404 1.055-11.999.77-15.984-.472-6.607-10.808-7.391-7.29-7.391z"/>
    <path fill="#4E5E67" d="M59.406 45.371c-1.158 2.138-.145 11.054.299 10.194 1.477-2.825 1.572-8.486.98-9.646-.115-.226-1.16-.763-1.279-.548zM37.074 23.79c-6.088 7.906 1.176 11.688 6.902 7.025 3.33-2.707-.131 7.734 5.039 8.572 5.084.838 3.195-8.304 5.563-5.769 3.977 4.254 7.748-10.022-3.117-11.569-5.088-.042-7.102.828-14.387 1.741z"/>
    <path fill="#EBBB96" d="M13.434 22.028c-3.369-.849-4.429-3.749-4.725-3.309-.54.795.097 3.631 2.142 5.07 1.185.839 3.649-1.492 2.583-1.761z"/>
    <path fill="#CFD8DD" d="M11.475 19.601c.487.73.195 1.719.195 1.719h4.247c-.157-1.848-1.5-2.428-1.5-2.428.183.72-.041 1.289-.041 1.289-.372-1.01-1.636-1.386-1.636-1.386.429.741.258 1.235.258 1.235-.681-.591-1.523-.429-1.523-.429z"/>
    <path fill="#CFD8DD" d="M10.157 21.921c-4.756 5.618-8.094 8.422-8.005 8.938.129.73-.357 1.547.893 2.116-.08.387.165.838.575.741.674-.15 2.146.344 3.329-.408.569-.365 2.527 1.386 6.987-.15 2.557-.881 7.317-7.079 5.757-9.324-2.374-3.417-7.473-4.352-9.536-1.913z"/>
    <path fill="#BC6464" d="M7.142 32.352c.205 1.858-2.388 1.815-3.704 1.45-1.19-.344-.531-2.063 3.704-1.45z"/>
    <path fill="#F78790" d="M3.53 29.14c.677-.795 4.484 2.148 3.612 3.212-.648.795-2.781.988-4.097.623-1.19-.344-.847-1.149-1.042-2.234-.072-.409 1.029-1.011 1.527-1.601z"/>
    <path fill="#BC6464" d="M2.776 30.815c-.023.559-.631 1.525.209 1.214.94-.354-.172-2.105-.209-1.214z"/>
    <path fill="#F6C799" d="M13.798 21.362c-3.369-.849-4.429-3.749-4.725-3.319-.54.806.097 3.642 2.142 5.081 1.184.838 3.65-1.493 2.583-1.762z"/>
    <path fill="#4E5E67" d="M16.273 23.307c-1.819-3.104-5.626-2.696-7.812 1.611-2.228 4.394 1.378 9.851 2.801 4.018.72-2.955 6.727-2.697 5.011-5.629z"/>
    <path fill="#1A1626" d="M10.436 26.723c0 .763-.464 1.386-1.039 1.386-.573 0-1.037-.623-1.037-1.386 0-.773.464-1.396 1.037-1.396.575-.001 1.039.622 1.039 1.396z"/>
    <path fill="#FFF" d="M9.323 26.11c0 .483-.519.483-.519 0s.519-.483.519 0z"/>
    <path fill="#4E5E67" d="M13.704 25.079c5.036-.032 5.931-5.328 5.261-5.199-1.047.204-3.897.494-6.232 1.977-.251.171.342 3.222.971 3.222z"/>
    <path fill="#302C3B" d="M14.597 24.413c3.455-.086 4.391-4.104 3.791-3.975-4.053.86-4.42 3.997-3.791 3.975z"/>
    <path fill="#1A1626" d="M14.596 24.413c.123 0 .237-.021.355-.032.5-1.235 1.466-2.632 3.113-3.856-3.74.955-4.079 3.91-3.468 3.888z"/>
    <path fill="#99A8AE" d="M17.512 29.29c-.094-.451-.391 2.793-4.741 4.211.007.752.32 1.396.32 1.396 4.155-1.987 4.526-5.102 4.421-5.607z"/>
</svg>
