<svg xmlns="http://www.w3.org/2000/svg" width="64" height="64">
    <path fill="#F59E01" d="M27.452 44.76s2.262 2.125 2.671 4.346c.241 1.313-.067 3.844-.831 5.497 2.937 3.161-.588 1.047-.96 1.321-3.991 2.938-11.793 2.5-11.793 2.5s2.539-.988 2.388-1.712c-.166-.801-3.173-.666-3.173-.666s2.861-.229 2.985-1.015c.072-.459-1.414-.666-1.414-.666s4.252-.852 9.28-.281c1.324.15 1.98-4.038 1.508-5.296-.446-1.187-3.362-3.394-3.362-3.394l2.701-.634z"/>
    <path fill="#EBBB96" d="M34.091 45.677c0 4.603-9.922 4.603-9.922 0 0-2.443 9.922-2.443 9.922 0z"/>
    <path fill="#785647" d="M59.854 31.764s-4.797 1.318-12.922-.807c1.437 11.938 12.922.807 12.922.807z"/>
    <path fill="#B47D56" d="M20.557 24.977c.673 1.119 2.009 1.277 2.009 1.277-2.294.848-17.162 8.758-3.777 19.732-8.86-2.221-13.992-12.738-7.708-21.946 1.313-1.923 8.275-1.059 9.476.937z"/>
    <path fill="#F59E01" d="M36.689 48.313s2.262 2.125 2.67 4.345c.242 1.312-.066 3.844-.83 5.497 2.936 3.161-.588 1.047-.961 1.322-3.99 2.938-11.792 2.5-11.792 2.5s2.539-.989 2.388-1.713c-.166-.801-3.174-.666-3.174-.666s2.861-.229 2.984-1.015c.072-.459-1.414-.666-1.414-.666s4.253-.852 9.28-.28c1.325.15 1.981-4.039 1.509-5.297-.447-1.187-3.363-3.394-3.363-3.394l2.703-.633z"/>
    <path fill="#E6EBEF" d="M12.872 20.847c-1.11 2.738-2.245 3.402-2.011 3.869 1.403 2.797 6.347 3.183 9.594.814.566-.413-.314-.677-.482-2.178-.199-1.782-6.428-4.165-7.101-2.505z"/>
    <path fill="#92C932" d="M12.872 20.847c3.991-7.323-3.619-4.547-3.328-12.496.343-9.385 13.572-7.897 13.572 1.364 0 6.096-3.254 8.873-3.142 13.638.062 2.664-9.829 2.499-7.102-2.506z"/>
    <path fill="#F59E01" d="M2.406 12.146c1.128 2.313 7.199 2.517 9.87 1.121 1.449-.757.974-1.808.974-1.808S.555 8.351 2.406 12.146z"/>
    <path fill="#FFE12C" d="M10.01 5.856C5.96 10.19 2.315 9.017 2.032 10.19c-.19.791.472 2.062 1.948 2.379 2.267.487 6.648.698 9.319-.698 1.449-.757-3.763-1.839-2.029-4.916 0 .001-1.006-.063-1.26-1.099z"/>
    <path fill="#302C3B" d="M15.065 9.409c-2.012 0-2.012-3.553 0-3.553 2.01 0 2.01 3.553 0 3.553zM8.872 8.94c-.397-.4.56-1.366.956-.965.397.4-.56 1.365-.956.965z"/>
    <path fill="#FFF" d="M14.794 7.011c0 .62-.843.62-.843 0s.843-.619.843 0z"/>
    <path fill="#FED0AC" d="M29.872 47.336c5.488 5.498 9.939-.959 9.939-.959 11.27-1.226 18.057-6.427 18.057-6.427-5.195 1.015-7.877.127-7.877.127 5.404-.507-9.258-18.733-25.387-15.942C8.623 26.9 6.085 49.264 29.872 47.336z"/>
    <path fill="#D6A57C" d="M22.686 40.763c13.929 5.695 25.429 2.503 25.429 2.503-10.061-1.714-13.717-10.297-25.526-11.55-6.97-.739-15.124 2.825.097 9.047z"/>
    <path fill="#B47D56" d="M27.327 40.755C47.619 45.561 62 34.674 62 34.674c-13.937 1.045-21.395-13.556-37.523-10.902-9.519 1.565-19.324 11.732 2.85 16.983z"/>
    <path fill="#785647" d="M30.202 39.846c-2.891-.698-4.242-1.871-4.242-1.871 13.228 2.029 22.126-4.85 22.126-4.85-3.086.25-5.787-1.049-5.787-1.049 1.508-.698 4.021-.364 4.021-.364s-7.499-9.559-20.329-8.58c-12.185.93-23.974 18.235 4.211 16.714z"/>
    <path fill="#594640" d="M46.32 31.711s-8.357-4.487-18.544-3.504c-2.266.219 8.218.542 14.523 3.868 1.773-.575 4.021-.364 4.021-.364zm-6.966 5.464s-6.953 1.157-14.109-.671c-2.205-.563-.537.578.715 1.471 7.118 1.357 13.394-.8 13.394-.8z"/>
</svg>
