<svg xmlns="http://www.w3.org/2000/svg" width="64" height="64">
    <path fill="#302C3B" d="M60.805 26.297c2.656-4.414-8.041-6.657-12.275-.477v1.447s8.732-2.711 6.736 2.628C53.045 35.845 62 40.823 62 40.823s-4.926-8.334-1.195-14.526zM12.868 58.833l.572-4.783s-.866.017-1.817-.253a29.962 29.962 0 0 0-.913 4.266c1.193.682 2.158.77 2.158.77z"/>
    <path fill="#785647" d="M27.619 46.762c-.707.567-1.545 1.292-2.145 1.931l-3.523-1.104s3.208-5.294 10.892-8.783c0 0-8.641-3.426-11.543 1.076 0 0-3.871 6.195-5.18 7.669-1.311 1.476.063 2.797.723 3.017.66.219 9.836 1.045 9.836 1.045s1.256-1.145 2.828-1.798c-.67-1.559-1.396-2.526-1.888-3.053z"/>
    <path fill="#302C3B" d="M28.998 45.69s-.615.45-1.379 1.071c.492.527 1.219 1.494 1.889 3.052.754-.317 1.576-.519 2.371-.438-.001.001-1.184-2.769-2.881-3.685z"/>
    <path fill="#785647" d="M38.902 34.051l-.797 6.357s8.025 1.461 11.393.105c0 0 2.984 7.84 8.5 12.788.414-.798.914-2.074 1.262-3.96-2.16-1.471-5.506-4.8-7.057-11.817 0 0-6.523.844-13.301-3.473z"/>
    <path fill="#302C3B" d="M57.998 53.302a18.185 18.185 0 0 0 2.359 1.816s.826-2.206.887-4.729c0 0-.818-.249-1.984-1.047-.348 1.886-.848 3.162-1.262 3.96z"/>
    <path fill="#B47D56" d="M36.445 40.823c4.514 10.94 16.074 5.645 16.074 5.645-2.225 6.69-.59 11.278.809 13.647 1.213-.663 1.967-2.151 2.326-3.037-3.123-3.787-.893-8.822-.289-10.801.664-2.174-.303-3.568-.303-3.568-2.721-.673-4.322 1.334-7.549-3.14-3.224-4.465-11.068 1.254-11.068 1.254z"/>
    <path fill="#302C3B" d="M54.744 62c1.557-.077 2.01-3.835 2.01-3.835a8.153 8.153 0 0 1-1.1-1.087c-.359.886-1.113 2.374-2.326 3.037.744 1.251 1.416 1.885 1.416 1.885z"/>
    <path fill="#785647" d="M13.741 7.737S13.533 5.496 15.788 2c0 0 2.299 2.44 2.517 7.094l-4.564-1.357z"/>
    <path fill="#302C3B" d="M13.544 6.009c5.992 15.017 14.159 17.236 14.159 17.236C25.746 7.26 13.544 6.009 13.544 6.009zM7.804 9.05s6.219.78 5.718-3.204C9.479 5.468 7.804 9.05 7.804 9.05z"/>
    <path fill="#302C3B" d="M14.921 6.691c2.221 2.773 6.024.956 6.024.956s-4.6-3.45-6.024-.956z"/>
    <path fill="#302C3B" d="M17.365 8.796c2.222 2.774 6.587 1.779 6.587 1.779s-3.021-4.25-6.587-1.779z"/>
    <path fill="#302C3B" d="M19.837 11.487c2.221 2.772 6.024.954 6.024.954s-4.6-3.447-6.024-.954z"/>
    <path fill="#302C3B" d="M22.312 13.457c2.313 3.595 6.25 3.781 6.25 3.781s-2.686-6.252-6.25-3.781z"/>
    <path fill="#302C3B" d="M22.882 16.42c2.223 2.773 6.352 4.48 6.352 4.48s-2.785-6.951-6.352-4.48z"/>
    <path fill="#302C3B" d="M23.216 18.813c2.221 2.773 5.846 4.692 5.846 4.692s-2.281-7.163-5.846-4.692z"/>
    <path fill="#B47D56" d="M44.313 23.119c-9.902-1.973-15.477 3.441-16.639-.687-2.723-9.665-5.909-10.862-8.442-9.6.14-.78.443-1.33.443-1.33-2.076.398-3.374-2.891-3.374-2.891-.377-3.651-4.374-6.424-4.374-6.424-.827 2.266-.448 6.285-.448 6.285-1.391 2.762-8.315 10.214-9.138 11.336-.824 1.123 5.698 4.032 7.482 3.656 6.715-1.425 5.474-4.328 5.474-4.328 4.147 5.979-5.546 10.893-.46 19.639-1.864 1.71-8.046 3.254-8.046 3.254-1.894 10.739 1.491 14.63 3.919 16.034.254-1.834.651-3.382.913-4.266-.941-.27-1.962-.822-2.33-1.955-.744-2.281.678-7.415.678-7.415 6.582.846 10.726-1.356 15.445-2.604 4.725-1.251 9.305-.43 13.809.472 14.611 2.931 16.486-16.899 5.088-19.176z"/>
    <path fill="#F5CFA0" d="M6.414 15.084c-2.412 2.766-4.879 4.79-4.339 5.77.771 1.395.194 2.271 1.966 3.402.591.979.915.002 1.752 1.096.373.488 1.417-.558 2.571-1.259.46-.279.953-.522 1.461-.629.869-5.279-5.31-1.548-3.411-8.38z"/>
    <path fill="#302C3B" d="M4.095 21.504c-.273.218-.94.383-1.144.087-.202-.296.139-.941.412-1.16a.585.585 0 0 1 .858.143.696.696 0 0 1-.126.93z"/>
    <path fill="#785647" d="M12.251 4.391c-.113.443-.705 3.586.216 4.683.621.742.684.621.6.188-.085-.436.269-1.24.239-.84-.028.404.082.706.223.322.139-.38.521-.917.361-.364-.162.547-.158 1.394.167 1.406.321.003.481-.283.556-.588.844-3.382-2.231-5.327-2.362-4.807z"/>
    <path fill="#D6A57C" d="M3.321 19.99c-.235.164-.192.263.014.176.207-.086 1.216-.374 1.3.827 0 0 .057.54.184.003.126-.536-.174-1.92-1.498-1.006z"/>
    <path fill="#302C3B" d="M12.466 14.467c0 1.211-2.023 1.211-2.023 0-.001-1.213 2.023-1.213 2.023 0z"/>
    <path fill="#FFF" d="M11.251 14.082c0 .344-.573.344-.573 0 0-.342.573-.342.573 0z"/>
    <path fill="#302C3B" d="M8.36 21.235c-.108 2.39-2.28 3.054-4.319 3.021 2.043-.698 3.773-1.467 4.319-3.021zm-2.07-7.87s1.262-.878 3.374-1.77c2.914-1.23 1.705-3.351 1.705-3.351-4.403.916-5.079 5.121-5.079 5.121z"/>
    <path fill="#9E6C49" d="M14.837 38.776l3.907-3.04s-4.642 2.771-4.987-5.152c0 0-1.656 4.599 1.08 8.192zm22.196 3.308s-1.182-1.674-1.88-6.61c0 0 .073 5.55-3.832 5.723.001-.001 2.095.253 5.712.887zm11.207-1.582s2.768-1.725 3.359-6.351c0 0-1.884 6.351-4.446 3.407 0 .001.275 1.928 1.087 2.944z"/>
</svg>
