<svg xmlns="http://www.w3.org/2000/svg" width="64" height="64"><path fill="#785647" d="M34.684 16.653S34.104 10.926 40.38 2c0 0 6.401 6.234 7.009 18.116l-12.705-3.463z"/><path fill="#302C3B" d="M34.134 12.237L62 62V29.273C49.386 14 34.134 12.237 34.134 12.237zm-15.978 7.762s17.309 2 15.915-8.173c-11.255-.967-15.915 8.173-15.915 8.173z"/><path fill="#302C3B" d="M37.967 13.98c6.182 7.083 16.771 2.438 16.771 2.438S41.933 7.613 37.967 13.98z"/><path fill="#302C3B" d="M44.771 19.355c6.182 7.083 16.582 6.146 16.582 6.146s-6.658-12.458-16.582-6.146z"/><path fill="#B47D56" d="M41.807 18.886C40.758 9.563 29.633 2.482 29.633 2.482c-2.304 5.784-1.249 16.052-1.249 16.052-3.871 7.052-23.149 26.08-25.436 28.949C.654 50.351 18.81 57.78 23.779 56.818c18.691-3.637 15.235-11.051 15.235-11.051C44.081 52.403 45.604 62 45.604 62H62V41.616s-3.704.389-4.624 8.175c0 0-5.956-7.786-1.839-17.807 0 0-1.051.474-4.073 4.602-3.635-4.737-.263-10.316-.263-10.316-5.781 1.015-9.394-7.384-9.394-7.384z"/><path fill="#F5CFA0" d="M14.286 35.411C7.57 42.478.704 47.647 2.21 50.147c2.143 3.563.539 5.801 5.471 8.688 1.644 2.5 2.548.003 4.878 2.801 1.037 1.246 3.941-1.425 7.157-3.216 1.278-.714 2.651-1.332 4.066-1.606 2.42-13.481-14.784-3.952-9.496-21.403z"/><path fill="#785647" d="M18.436 59.174c.999-.798 3.378-2.283 6.995-3.14 2.439-.577 4.861-1.274 7.088-2.323 2.214-1.039 4.29-2.485 5.448-4.583 1.152-2.085 1.168-4.762.226-7.123 1.391 2.121 1.835 5.065.675 7.568-1.137 2.515-3.457 4.189-5.792 5.309-2.379 1.12-4.903 1.771-7.443 2.189-3.085.51-6.037 1.569-7.197 2.103z"/><path fill="#302C3B" d="M7.831 51.808c-.761.561-2.618.977-3.185.222-.563-.756.388-2.403 1.147-2.961a1.723 1.723 0 0 1 2.393.363 1.688 1.688 0 0 1-.355 2.376z"/><path fill="#785647" d="M30.533 8.102c-.313 1.133-1.963 9.162.601 11.964 1.73 1.894 1.907 1.582 1.672.479-.236-1.113.745-3.169.665-2.143-.078 1.03.229 1.803.62.821.385-.967 1.451-2.341 1.005-.932-.45 1.4-.44 3.565.465 3.588.895.01 1.341-.718 1.548-1.499 2.351-8.632-6.209-13.6-6.576-12.278z"/><path fill="#D6A57C" d="M5.678 47.944c-.654.414-.535.672.035.449.576-.221 3.385-.957 3.621 2.113 0 0 .155 1.375.512.01.352-1.372-.487-4.908-4.168-2.572z"/><path fill="#302C3B" d="M31.132 33.835c0 3.094-5.63 3.094-5.63 0s5.63-3.094 5.63 0z"/><path fill="#FFF" d="M27.751 32.858c0 .877-1.597.877-1.597 0 0-.878 1.597-.878 1.597 0z"/><path fill="#302C3B" d="M19.704 51.121c-.3 6.109-6.348 7.799-12.023 7.714 5.687-1.781 10.505-3.746 12.023-7.714zm-5.762-20.099s3.513-2.242 9.393-4.517c8.113-3.14 4.745-8.557 4.745-8.557-12.258 2.342-14.138 13.074-14.138 13.074z"/></svg>