<svg xmlns="http://www.w3.org/2000/svg" width="64" height="64">
    <path fill="#803856" d="M45.965 60.513h3.516c-.125-.866.484-1.938.484-1.938l-3.641-.447s-.609.768-.828 1.982l.651-.206s-.182.402-.182.609z"/>
    <path fill="#F26887" d="M51.13 56.161c-1.907-1.382-.898 4.383-.467 3.76 1.057-1.526 1.084-3.313.467-3.76z"/>
    <path fill="#FF8FA8" d="M48.121 52.979c1.045.883-1.844 3.758-2.156 5.451 1.516-.223 4.024.539 4.024.539.453-1.852 1.732-2.398 1.683-2.644-.645-3.187 1.819-1.272.846-4.54-3.019-10.13-9.515-3.126-4.397 1.194z"/>
    <path fill="#803856" d="M19.507 60.513h3.516c-.125-.866.484-1.938.484-1.938l-3.641-.447s-.609.768-.828 1.982l.651-.206s-.182.402-.182.609z"/>
    <path fill="#FF8FA8" d="M21.663 52.979c.744 1.159-1.844 3.758-2.156 5.451 1.516-.223 4.023.539 4.023.539.453-1.852 3.49-6.629 3.453-6.877-1.371-9.007-10.277-9.967-10.277-9.967s2.688 7.323 4.957 10.854zm31.739-34.246c.233 3.94 3.848 3.979 5.595.879-.002 1.229-.192 3.196-1.826 4.701l1.173 1.604c2.811-3.428 2.349-6.767 1.868-8.637.762-1.702 1.33-3.492 1.788-5.28-.571 1.474-1.196 3.129-1.984 4.672-1.957-4.537-6.856-2.06-6.614 2.061zm1.538-1.716c1.533-2.883 4.017-.559 3.974 1.536-2.458 4.091-5.381 1.112-3.974-1.536z"/>
    <path fill="#F26887" d="M18.069 18.369c-2.787.246-1.156.46-4.924.841-1.651.167 2.562 13.371 5.479 4.68 0 0 3.133-5.846-.555-5.521z"/>
    <path fill="#FFA3B8" d="M34.755 22.804c-6.191 1.373-15.971-6.28-22.028 1.447-1.819 2.322-5.771 3.871-7.931 3.929-.512.015-1.478-1.133-1.916-.831-1.142.785-1.068 4.719-.375 6.02.348.652 1.906.408 2.225 1.082 2.005 4.23 5.325 4.068 7.748 6.84 3.177 3.63 9.115 3.315 15.528 7.307 14.063 8.753 31.272-.71 33.212-8.893 4.059-17.136-8.122-20.965-26.463-16.901z"/>
    <path fill="#FF8FA8" d="M17.169 21.786c-.34-1.816 1.928-5.525 5.615-5.2 2.787.246 2.516 2.961 6.282 3.341 1.652.167-2.561 13.371-5.479 4.68.001-.001-5.702 1.001-6.418-2.821z"/>
    <path fill="#F26887" d="M17.355 22.685c-.764-1.446 1.513-4.591 4.866-4.295 0 0 .282 2.893 1.366 6.217.001-.001-4.665 1.042-6.232-1.922z"/>
    <path fillRule="evenodd" clipRule="evenodd" fill="#302C3B" d="M12.108 25.831s1.794-.262 2.556 1.438c0 0-.934 2.021-2.458 1.24-.824-.422-.098-2.678-.098-2.678z"/>
    <path fillRule="evenodd" clipRule="evenodd" fill="#803856" d="M2.789 28.399s1.753 5.207.229 4.426c-.824-.422-.229-4.426-.229-4.426z"/>
    <path fill="#302C3B" d="M5.314 35.511c-.348-.242-.975-1.4-.975-1.4s3.992 1.17 5.975-1.757c-.661 3.456-5 3.157-5 3.157z"/>
    <path fill="#FF8FA8" d="M38.015 51.985c-13.84-1.811-18.977-7.174-18.977-7.174.749.045 1.255-.924 1.295-4.5 3.227-.93 9.241 1.289 10.717 1.592 3.437 4.539-2.129 8.098 6.965 10.082z"/>
    <path fill="#803856" d="M22.175 62h3.516c-.125-.866.484-1.937.484-1.937l-3.641-.448s-.609.768-.828 1.982l.652-.206c0 .001-.183.403-.183.609z"/>
    <path fill="#FF8FA8" d="M27.34 57.649c-1.907-1.383-.899 4.383-.468 3.76 1.057-1.527 1.084-3.313.468-3.76z"/>
    <path fill="#FFA3B8" d="M31.785 43.185c0-5.228-11.735-3.808-11.735-3.808s0 9.112 4.943 14.636c.915 1.021-2.506 4.212-2.818 5.906 1.516-.224 4.024.538 4.024.538.452-1.851 1.732-2.397 1.683-2.644-.645-3.186 2.069-.662.819-3.83-1.917-4.863 3.084-4.329 3.084-10.798z"/>
    <path fill="#FF8FA8" d="M54.384 48.159s-2.084 1.342-4.375 2.016c1.577-1.675 1.577-6.345 1.577-6.345l2.798 4.329z"/>
    <path fill="#803856" d="M54.206 62h3.516c-.125-.866.484-1.937.484-1.937l-3.641-.448s-.609.768-.828 1.982l.652-.206c.001.001-.183.403-.183.609z"/>
    <path fill="#FF8FA8" d="M59.371 57.649c-1.907-1.383-.899 4.383-.468 3.76 1.057-1.527 1.084-3.313.468-3.76z"/>
    <path fill="#FFA3B8" d="M62 33.936c0-5.228-10.409 9.636-10.409 9.636s-.347 6.575 4.771 10.896c1.045.883-1.844 3.757-2.156 5.451 1.516-.224 4.024.538 4.024.538.452-1.851 1.732-2.397 1.683-2.644-.645-3.186 2.615-.949.819-3.83C55.972 46.347 62 48.489 62 33.936z"/>
    <path fill="#FFF" d="M12.55 26.404c-.055.548-.451.482-.395-.065.041-.418.436-.352.395.065z"/>
</svg>
