<svg xmlns="http://www.w3.org/2000/svg" width="64" height="64"><path fill="#594640" d="M10.869 8.225c1.615-6.48 6.532-7.746 8.925-.951 2.685 7.623-1.532 6.77-2.857 3.862-.968-2.126-2.492.198-2.718 1.944-.248 1.92-3.799-3.057-3.35-4.855z"/><path fill="#45332C" d="M15.33 57.014h4.209c.284-1.115.578-1.723.849-2.053l-4.02-2.864c-.57 1.466-1.038 3.085-1.038 4.917z"/><path fill="#9E6C49" d="M26.967 30.876c0-7.568-12.395-.03-12.395-.03s1.023 6.926 2.84 14.72c.448 1.916-.03 3.912-1.045 6.53l4.02 2.864c.575-.701 1.031-.127.984-.484-1.161-8.83 2.765-5.387 1.391-9.975-2.11-7.044 4.205-4.252 4.205-13.625z"/><path fill="#45332C" d="M45.954 57.014h4.209c.283-1.115.577-1.724.85-2.052L46.991 52.1c-.567 1.463-1.037 3.084-1.037 4.914z"/><path fill="#9E6C49" d="M51.792 29.765c2.077-7.224-13.579.56-13.579.56s1.43 10.627 9.341 15.245c1.598.933.451 3.911-.563 6.53l4.021 2.862c.575-.7 1.03-.127.982-.484-1.16-8.832 2.35-4.485.975-9.073-2.11-7.046-3.422-7.832-1.177-15.64zm10.15-1.891c-.514-1.542-4.667-5.936-7.163-5.77-.571 6.981 7.998 8.296 7.163 5.77z"/><path fill="#B47D56" d="M45.184 19.081c-14.936 2.053-13.553-2.583-21.326-1.332-2.002.322-3.653-1.252-3.814-4.314l-6.813 5.179c2.204 6.231-6.149 11.739 6.458 22.136 3.099 2.555 26.654.65 36.495-4.841 6.991-3.902.764-18.446-11-16.828z"/><path fill="#45332C" d="M21.91 62h4.209c.284-1.114.578-1.724.849-2.053l-4.021-2.863C22.38 58.549 21.91 60.169 21.91 62z"/><path fill="#B47D56" d="M32.319 34.75c0-7.57-12.44.582-12.44.582s2.162 7.342 3.979 15.14c.447 1.915.104 3.995-.911 6.612l4.021 2.863c.578-.7 1.033-.126.984-.484-1.16-8.831 2.348-4.485.975-9.072-2.111-7.045 3.392-6.271 3.392-15.641z"/><path fill="#45332C" d="M52.899 62h4.209c.284-1.114.577-1.724.849-2.053l-4.021-2.863c-.566 1.465-1.037 3.085-1.037 4.916z"/><path fill="#B47D56" d="M57.957 34.34c3.092-7.624-15.218.992-15.218.992s4.101 10.611 12.012 15.23c1.598.932.2 3.904-.814 6.521l4.021 2.863c.577-.7 1.032-.126.984-.484-1.16-8.831 2.349-4.485.975-9.072-2.112-7.044-5.021-8.499-1.96-16.05z"/><path fill="#FED0AC" d="M56.664 40.75c-.147-1.702.174-3.648 1.293-6.408 3.074-4.2-.236-12.418-7.102-14.754-3.207-.036-2.571 7.944.157 9.474 10.38 5.82 1.688 8.618 5.652 11.688z"/><path fill="#B47D56" d="M39.788 43.221c-1.163-1.623-.468-3.838-.468-3.838l-10.131.256c1.16 3.592 3.581 5.156 3.581 5.156-.436-1.598.096-2.881.096-2.881.887 2.248 3.906 3.1 3.906 3.1-1.022-1.656-.619-2.764-.619-2.764 1.623 1.327 3.635.971 3.635.971zM7.378 12.12c1.385-1.166 2.938-4.817 5.943-5.091 9.892-.903 11.029 13.772-.935 14.161-7.269.235-7.389 2.818-8.335.003-1.792.337-.726-.94-1.716-2.513-.655-1.044-.95-1.516 5.043-6.56z"/><path fill="#FED0AC" d="M6.571 22.106c-1.681.522-1.952.769-2.519-.915-1.792.337-.726-.94-1.716-2.513-.446-.713-.729-1.159 1.045-2.973.824-.843 7.504 4.287 3.19 6.401z"/><path fill-rule="evenodd" clip-rule="evenodd" fill="#302C3B" d="M4.232 18.375s-.936 1.024-1.247.461c-.435-.782 1.188-.899 1.247-.461z"/><path fill="#302C3B" d="M4.254 21.699c-.14-.283-.202-.507-.202-.507s1.892-.271 3.984-1.2c-1.364 1.197-3.782 1.707-3.782 1.707z"/><path fill-rule="evenodd" clip-rule="evenodd" fill="#302C3B" d="M10.484 11.673s1.683-.207 2.396 1.14c0 0-.876 1.604-2.308.985-.772-.336-.088-2.125-.088-2.125z"/><path fill="#FFF" d="M10.936 12.227c-.053.525-.447.462-.391-.063.04-.402.432-.338.391.063z"/><path fill="#967668" d="M12.644 7.488c3.061-6.48 12.38-7.746 16.916-.951 5.088 7.622-4.164 17.227-9.621 12.189 5.297-.025 6.717-5.419 4.207-8.327-1.838-2.126-4.729.197-5.154 1.943-.468 1.921-7.199-3.056-6.348-4.854z"/><path fill="#594640" d="M13.953 10.12c3.133-6.632 16.198-6.544 16.864 2.818.218 3.071-5.835 10.212-10.878 5.788 6.844.842 8.059-5.343 4.542-8.333-2.158-1.834-4.883.151-5.309 1.897-.468 1.922-4.252-.855-5.219-2.17z"/><path fill="#594640" d="M13.755 6.458c.245 1.958 2.128 3.551 2.95 3.667-.837-2.506-1.817-3.302-2.95-3.667zm2.082-2c.243 1.958 2.127 3.551 2.949 3.667-.839-2.506-1.816-3.303-2.949-3.667zm2.978-1.56c-.108 1.969 1.464 3.843 2.252 4.09-.378-2.604-1.2-3.547-2.252-4.09zm3.718-.422c-.746 1.84.136 4.086.805 4.553.49-2.588.019-3.727-.805-4.553zm3.19 1.048c-1.203 1.606-.933 3.99-.408 4.6 1.152-2.391.99-3.605.408-4.6zm2.444 1.757c-1.46 1.4-1.596 3.795-1.181 4.478 1.542-2.183 1.587-3.407 1.181-4.478zm1.6 2.369c-1.457 1.401-1.595 3.796-1.18 4.479 1.542-2.184 1.587-3.407 1.18-4.479z"/><path fill="#B47D56" d="M16.457 14.585c5.558.012 6.512-5.327 5.753-5.385-1.143-.086-4.32.481-7.535 2.461-.284.176 1.085 2.923 1.782 2.924z"/><path fill="#785647" d="M17.083 13.999c3.817-.063 5.121-4.345 4.45-4.212-4.526.889-5.145 4.222-4.45 4.212z"/><path fill="#45332C" d="M17.083 13.999c.136-.002.262-.021.394-.034.635-1.311 1.797-2.798 3.696-4.092-4.192.995-4.765 4.136-4.09 4.126z"/></svg>