<svg xmlns="http://www.w3.org/2000/svg" width="64" height="64"><path fill="#E6EBEF" d="M55.353 15.035c-9.488-5.504-20.5-1.202-22.736 9.3-.547 2.576-1.35 12.362 6.041 9.14 4.461 1.88 3.136 9.209 3.136 9.209s7.483-3.418 4.556-11.626c4.295 0 7.209 7.304 7.209 7.304s2.936-7.039.811-13.296c3.869-.378 7.428 4.99 7.428 4.99s1.986-10.129-6.445-15.021z"/><path fill="#F59E01" d="M31.026 62H17.578c0-1.104 7.865-1.273 8.24-8.752 1.205 8.323 5.208 7.648 5.208 8.752zm-13.348-3.93l-8.333-9.586c.597-.684 5.56 4.816 9.819.45-3.737 6.017-.891 8.453-1.486 9.136z"/><path fill="#E6EBEF" d="M40.635 33.393c0-10.39-7.407-2.106-16.542-2.106-14.142 0 5.809-19.853-10.101-19.853-5.119 0-6.441 15.029-6.441 21.959 0 8.784 5.302 16.14 12.458 18.211.206 2.151 3.179 5.072 5.82 5.072 2.643 0 5.578-4.292 5.781-6.54 5.352-3.115 9.025-9.435 9.025-16.743z"/><path fill="#CFD8DD" d="M28.987 50.229c-.605 3.957-2.738 6.41-6.063 5.436.909.611 1.929 1.011 2.904 1.011 2.643 0 5.752-2.905 5.781-6.54 5.353-3.115 9.025-9.435 9.025-16.743-.411 6.544-6.293 13.721-11.647 16.836z"/><path fill="#BEC3CF" d="M39.569 38.142s-2.852 1.106-7.682-.676c.854 10.015 7.682.676 7.682.676zm-21.336 7.33c8.28 4.779 15.117 2.1 15.117 2.1-5.98-1.438-8.154-8.64-15.175-9.691-4.142-.62-8.99 2.37.058 7.591z"/><path fill="#E6EBEF" d="M20.233 45.687c12.063 4.032 20.611-5.103 20.611-5.103-8.284.877-12.717-11.375-22.305-9.147-5.659 1.313-11.487 9.843 1.694 14.25z"/><path fill="#CFD8DD" d="M26.368 32.793c4.201 3.247 7.477 8.298 12.705 8.192 0 0-8.986 8.172-20.417 3.248-3.11-1.339-5.053-2.828-6.135-4.322.735 2.106 3.01 4.203 7.712 5.775 12.063 4.032 20.611-5.103 20.611-5.103-5.665.602-9.531-4.94-14.476-7.79z"/><path fill="#C21413" d="M8.495 27.866c-.758 8.223-9.488 4.469-5.418-2.206 3.67-6.02 9.575-8.988 9.575-8.988s-3.794 7.249-4.157 11.194z"/><path fill="#D47706" d="M9.879 19.913s-5.073-1.595-7.747 2.281c2.41-1.309 6.92 2.405 7.747-2.281z"/><path fill="#F59E01" d="M9.46 20.994c1.603-1.748-.648-4.716-2.711-4.278C2.474 17.624 2 22.376 2 22.376c2.895-2.654 5.258 1.019 7.46-1.382z"/><path fill="#E6EBEF" d="M6.679 28.928l.871 11.249 5.51-6.938 9.867-3.094s-3.496-.347-3.433-3.179c.064-2.833 3.095-10.968 1.138-13.365-1.958-2.396-10.502 0-10.502 0L6.679 28.928z"/><ellipse fill="#E81C27" cx="12.824" cy="19.945" rx="4.42" ry="4.164"/><path fill="#E81C27" d="M9.392 29.151c1.699 8.09-7.778 6.886-5.846-.629 1.744-6.778 6.528-11.242 6.528-11.242s-1.498 7.989-.682 11.871z"/><path fill="#E81C27" d="M21.812 13.102c.033-.52.041-1.069-.008-1.683-.276-3.424 3.514-6.509 3.514-6.509s-6.223-.877-8.888 4.161c-.318.6-.565 1.28-.737 1.984a10.96 10.96 0 0 0-.488-1.576C13.963 6.353 16.653 2 16.653 2s-6.125 1.536-7.195 7.305a9.273 9.273 0 0 0 .083 3.653c-.107-.104-.196-.21-.312-.314-1.969-1.758-1.442-6.172-1.442-6.172s-4.011 3.861-2.864 8.599c.67 2.761 3.233 5.544 5.412 3.242.66-.696 2.303-1.796 3.306-2.104.743-.229 2.615-.139 3.786.795 1.082.862 1.872 2.374 3.448 2.449 6.666.318 7.877-8.87 7.877-8.87s-3.418 1.652-6.94 2.519z"/><path fill="#302C3B" d="M12.044 20.521c-2.086 0-2.086-3.553 0-3.553 2.084 0 2.084 3.553 0 3.553z"/><path fill="#FFF" d="M11.763 18.123c0 .62-.873.62-.873 0s.873-.62.873 0z"/><path fill="#CFD8DD" d="M61.796 30.056c-1.221-6.994-11.635-9.827-16.604-5.035-.509.49 9.895-3.417 16.604 5.035zm-8.238 8.305c-1.221-6.993-5.644-9.747-10.311-7.81-.66.275 3.603-.642 10.311 7.81zm-11.765 4.323c2.589-4.632.319-10.118-3.31-10.882-.703-.149 2.694.256 3.31 10.882z"/></svg>