<svg xmlns="http://www.w3.org/2000/svg" width="64" height="64">
    <path fill="#D1C0B5" d="M55.109 22.665c.553 5.353 7.583 5.907 6.835 3.521-.458-1.455-2.874-5.597-5.11-5.44-.393.028-1.887.34-1.725 1.919z"/>
    <path fill="#302C3B" d="M13.888 57.965h3.685c.249-.906.507-1.396.744-1.664l-3.521-2.319c-.497 1.188-.908 2.498-.908 3.983z"/>
    <path fill="#6E8189" d="M23 35.896c0-6.127-8.887.457-8.887.457s.752 5.93 2.343 12.242c.392 1.551-.771 3.266-1.66 5.387l3.521 2.319c.503-.568.902-.104.861-.393-1.017-7.149 2.056-3.632.852-7.347C18.182 42.856 23 43.485 23 35.896z"/>
    <path fill="#302C3B" d="M39 57.965h3.685c.249-.906.508-1.396.744-1.664l-3.521-2.319C39.412 55.17 39 56.48 39 57.965z"/>
    <path fill="#6E8189" d="M48.111 35.896c0-6.127-8.885.457-8.885.457s.752 5.93 2.343 12.242c.392 1.551-.773 3.266-1.661 5.387l3.521 2.319c.503-.568.902-.104.86-.393-1.015-7.149 2.057-3.632.853-7.347-1.847-5.705 2.969-5.076 2.969-12.665z"/>
    <path fill="#D1C0B5" d="M23.324 41.983c0 4.867-9.975 4.867-9.975 0 .001-11.054 9.975-11.054 9.975 0zm26.442.901c0 4.867-12.34 4.867-12.34 0 0-11.056 12.34-11.056 12.34 0z"/>
    <path fill="#302C3B" d="M19.648 62h3.685c.248-.902.506-1.395.743-1.66l-3.52-2.318c-.495 1.183-.908 2.498-.908 3.978z"/>
    <path fill="#6E8189" d="M28.76 39.935c0-6.129-8.887.453-8.887.453s.753 5.932 2.345 12.246c.391 1.551-.773 3.267-1.661 5.388l3.52 2.318c.505-.568.903-.104.861-.393-1.016-7.153 2.056-3.633.853-7.347-1.849-5.704 2.969-5.078 2.969-12.665z"/>
    <path fill="#302C3B" d="M45.674 62h3.685c.249-.902.507-1.393.744-1.66l-3.521-2.318c-.496 1.185-.908 2.498-.908 3.978z"/>
    <path fill="#6E8189" d="M54.786 39.935c0-6.127-8.887.455-8.887.455s.752 5.932 2.343 12.244c.392 1.551-.771 3.267-1.66 5.388l3.521 2.318c.503-.568.902-.104.861-.393-1.016-7.151 2.056-3.631.852-7.347-1.848-5.704 2.97-5.078 2.97-12.665zM7.485 9.326c1.411-1.253.652-4.617 8.588-4.98 5.375-.246 6.501 14.396-3.48 14.738-7.412.254-7.534 3.033-8.498.004-1.829.363-.742-1.011-1.752-2.705-.67-1.123-.97-1.629 5.142-7.057z"/>
    <path fillRule="evenodd" clipRule="evenodd" fill="#302C3B" d="M4.275 16.057s-.954 1.101-1.271.496c-.443-.843 1.213-.969 1.271-.496z"/>
    <path fill="#E1D3C8" d="M14.286 15.39c-8.393 9.38-3.6 25.617 5.071 27.855 2.849.736 6.776 0 6.776 0 5.926 1.986 13.422-1.822 19.284-.674 19.943 0 14.175-26.649 4.371-26.766 0 0-5.235-5.385-11.034-1.067-1.509-1.849-3.725-2.053-9.333-.469-2.029-.985-3.288-5.375-3.288-5.375-3.176-5.937-11.847 6.496-11.847 6.496z"/>
    <path fill="#E1D3C8" d="M20.633 17.632c-10.573 4.747-9.303-4.032-5.605-7.218C17.46 8.319 10.057 2 19.965 4.89c4.56 1.33 6.677 10.046.668 12.742z"/>
    <path fill="#302C3B" d="M4.299 19.632c-.143-.305-.204-.545-.204-.545s1.928-.292 4.063-1.292c-1.392 1.288-3.859 1.837-3.859 1.837z"/>
    <path fill="#6E8189" d="M16.616 8.899c6.749.015 7.89-7.069 6.981-6.896-1.42.269-5.261.632-8.511 2.641-.349.217.685 4.253 1.53 4.255z"/>
    <path fill="#FF8FA8" d="M17.375 8.147c4.635-.08 6.22-5.563 5.406-5.395-5.501 1.141-6.25 5.41-5.406 5.395z"/>
    <path fill="#F26887" d="M17.373 8.147c.166-.003.319-.027.479-.043.771-1.679 2.182-3.583 4.487-5.24-5.089 1.274-5.785 5.297-4.966 5.283z"/>
    <path fill="#E1D3C8" d="M29.361 44.472c0 4.867-12.339 4.867-12.339 0 0-11.059 12.339-11.059 12.339 0zm27.108-.756c0 4.865-12.339 4.865-12.339 0 0-11.056 12.339-11.056 12.339 0z"/>
    <path fillRule="evenodd" clipRule="evenodd" fill="#302C3B" d="M10.381 8.754s1.718-.222 2.447 1.227c0 0-.894 1.725-2.354 1.059-.788-.361-.093-2.286-.093-2.286z"/>
    <path fill="#FFF" d="M10.845 9.349c-.056.565-.457.497-.399-.068.04-.431.44-.363.399.068z"/>
    <path fill="#F1E7DC" d="M46.065 20.234c.053-3.816-5.401-5.086-7.011-1.63 2.153-1.021 5.519-.237 7.011 1.63z"/>
    <path fill="#F1E7DC" d="M40.875 21.031c.052-3.816-5.403-5.086-7.012-1.632 2.154-1.02 5.519-.235 7.012 1.632zm10.344 1.542c.053-3.818-5.403-5.087-7.012-1.631 2.152-1.021 5.518-.238 7.012 1.631zM47.128 36.44c2.071 3.191 7.297 1.168 6.716-2.607-1.219 2.063-4.444 3.313-6.716 2.607z"/>
    <path fill="#F1E7DC" d="M41.561 37.409c2.071 3.193 7.298 1.166 6.717-2.604-1.22 2.059-4.444 3.309-6.717 2.604zm-21.672-5.144c-1.164 3.632 3.677 6.466 6.224 3.642-2.355.336-5.343-1.414-6.224-3.642z"/>
    <path fill="#F1E7DC" d="M25.082 33.048c-1.164 3.633 3.679 6.467 6.224 3.645-2.357.331-5.344-1.419-6.224-3.645zM18.229 19.4c-2.73 2.642.204 7.456 3.772 6.184-2.23-.83-4.041-3.798-3.772-6.184z"/>
</svg>
