<svg xmlns="http://www.w3.org/2000/svg" width="64" height="64">
    <path fillRule="evenodd" clipRule="evenodd" fill="#D47706" d="M18.725 37.886c-.432 7.041 4.432 10.449 4.858 19.717.081 1.75 3.479 3.076 3.479 3.076 2.842-11.219 2.26-15.752.17-22.925 0 0-8.412-1.412-8.507.132zm26.732 7.366c-.283-2.03-14.83-3.205-14.83-3.205 3.439 6.817 6.986 6.825 9.266 8.524 1.238.921 1.402 5.547.627 7.031C39.895 58.803 42.047 62 42.047 62c3.875-6.858 4.01-12.509 3.41-16.748z"/>
    <path fillRule="evenodd" clipRule="evenodd" fill="#F5CFA0" d="M40.52 57.603c-.99 1.25-4.484 1.105-4.484 4.397h7.32c.65 0 .771-1.931.604-2.651-.333-1.405-1.802-.36-3.44-1.746zm-16.937 0c-.989 1.25-5.044 1.105-5.044 4.397h7.881c.65 0 .84-1.103.67-1.822-.33-1.404-2.23-1.282-3.507-2.575z"/>
    <path fill="#F59E01" d="M37.107 29.459c19.668.595 11.105 25.89 23.297 16.606 1.758-1.34 2.182 1.916.674 2.932-12.652 8.516-9.965-10.7-19.232-13.362-2.395-.688-4.739-6.176-4.739-6.176z"/>
    <path fill="#302C3B" d="M49.365 36.408c-1.207.902-2.35 2.466-2.732 3.961-.189.743.941.756 1.092.173.303-1.186 1.16-2.481 2.107-3.269-.191-.427-.467-.865-.467-.865zm-.154 8.044c.59-1.133 1.41-2.154 2.408-2.82-.055-.223-.195-.552-.195-.552-1.031.562-1.93 1.412-2.646 2.433.177.451.433.939.433.939zm2.127 4.041c.725-.841 1.15-1.939 1.822-2.785a7.053 7.053 0 0 0-.301-.664c-.84.736-1.35 1.766-1.98 2.725.215.412.459.724.459.724zm4.543-.389c-.084 1.026.195 1.989.373 3.012 0 0 .59-.047 1.113-.24-.191-.972-.457-1.945-.352-2.908-.605.136-1.134.136-1.134.136z"/>
    <path fill="#F59E01" d="M14.549 41.575c-1.209-.938-5.426-4.653-8.625-1.292-1.127 1.184-1.926-1.235-3.468-1.957-.827-.387.568-3.338 1.076-4.184.521-.867-.784-1.671 3.579-6.032 1.262-3.059 2.549-2.361 3.041-.62 4.273-.115 8.654.331 15.408 2.135 5.672 1.516 11.863-1.783 17.195.909 3.125 1.579 8.424 11.367.98 12.968-9.18 1.973-16.483 7.925-29.186-1.927z"/>
    <path fill="#FFE8BB" d="M13.963 41.838c-1.041-1.119-5.025-4.234-8.225-.873-1.127 1.184-1.74-1.917-3.282-2.639 2.794 1.2 3.625-3.846 5.661-3.846 1.887 0 5.996 7.109 19.07 8.937 7.063.986 4.881-.762 16.549 2.114-9.181 1.974-19.484 7.365-29.773-3.693z"/>
    <path fillRule="evenodd" clipRule="evenodd" fill="#302C3B" d="M4.845 32.669s.999-.146 1.422.805c0 0-.52 1.132-1.367.694-.46-.235-.055-1.499-.055-1.499z"/>
    <path fillRule="evenodd" clipRule="evenodd" fill="#8A6859" d="M2.467 36.482s-1.232 1.703.309 2.195c.611.195-.377-1.046-.309-2.195z"/>
    <path fillRule="evenodd" clipRule="evenodd" fill="#AB5C10" d="M8.852 28.421s-.82-.55-1.213-.212c.197-1.526.992-1.903 1.213.212z"/>
    <path fillRule="evenodd" clipRule="evenodd" fill="#F59E01" d="M15.104 38.483c-.295 7.791 3.315 10.066.865 19.119-.452 1.674 3.351 3.768 3.351 3.768 4.266-8.906 3.749-14.789 4.56-19.206-.001 0-8.698-5.758-8.776-3.681zm31.726-2.335c-.258-.738-14.924 6.175-14.1 5.9 3.441 6.817 6.988 4.796 9.268 6.493 1.238.924 4.045 7.576 3.271 9.061-.625 1.201 3.451 3.291 3.451 3.291.428-3.622 3.009-10.708-1.89-24.745z"/>
    <path fill="#302C3B" d="M11.797 27.476c-.119 3.276 3.236 3.898 2.184 9.288 3.201-4.343-.138-7.042-.142-9.22-.661-.053-2.042-.068-2.042-.068zm3.732.202c.029 1.545 1.365 4.419 2.764 6.322-.285-1.473-.916-3.875-.782-6.082-.61-.103-1.982-.24-1.982-.24zm7.075 1.208c-.545-.144-2.115-.456-2.115-.456.094 7.238-4.33 13.617-.148 21.313-1.851-6.881 2.147-13.835 2.263-20.857zm3.335 13.161c.594-3.68-1.922-5.954-1.305-10.114-2.648 5.081 1.301 10.106 1.305 10.114zm7.961.657c-.848-5.255 1.338-5.94.457-11.882 3.784 7.257-.451 11.871-.457 11.882zm-4.669-12.662c-1.331-.039-2.997-.259-2.997-.259 2.08 2.878 3.268 6.31 4.344 11.868.844-4.487.985-8.365-1.347-11.609zm10.421-.465s-1.447-.26-2.545-.118c.83 4.815 3.182 9.38.396 13.942 4.895-3.464 2.999-9.125 2.149-13.824zm4.571 2.628c-.537 8.659-2.906 7.597-3.027 15.192 1.49-5.558 5.152-7.064 3.027-15.192zm-.346 18.425c3.438-.078 3.053-4.012 4.9-6.178-3.738 1.424-2.775 5.09-4.9 6.178zm1.848 4.016c2.73-.203 2.652-3.013 3.512-4.703-1.915 1.068-1.86 3.265-3.512 4.703zm1.287-21.365c-.645-.681-1.328-1.151-1.328-1.151.041 2.734.664 3.422.131 6.552 1.197-1.568 1.205-4.67 1.197-5.401zM5.566 29.772c-.709.748-1.178 1.602-1.178 1.602s1.801-.963 3.738-.15c-.687-1.36-2.56-1.452-2.56-1.452zm.039 6.885c2.178 1.396 5.652.226 5.285-3.155-.841 1.378-1.544 3.44-5.285 3.155z"/>
    <path fill="#302C3B" d="M5.396 34.824c1.812 1.16 4.699.188 4.395-2.623-.699 1.146-1.284 2.861-4.395 2.623zm-1.167 5.325c-.329-.2-.608-.688-.608-.688s1.726-.373 2.814-1.431c-.447 1.561-2.206 2.119-2.206 2.119z"/>
    <path fillRule="evenodd" clipRule="evenodd" fill="#FFE8BB" d="M15.969 57.603c-.988 1.249-5.482-.104-5.482 4.397h8.318c.65 0 .942-1.211.773-1.931-.331-1.404-2.076-1.673-3.609-2.466z"/>
    <path fillRule="evenodd" clipRule="evenodd" fill="#F5CFA0" d="M12.564 59.168c-.619.507-1.054 1.349-1.054 2.832h.789s-.422-.968.265-2.832z"/>
    <path fillRule="evenodd" clipRule="evenodd" fill="#FFE8BB" d="M45.27 57.603c-.988 1.249-5.484-.104-5.484 4.397h8.32c.65 0 .941-1.211.771-1.931-.33-1.404-2.063-1.111-3.607-2.466z"/>
    <path fillRule="evenodd" clipRule="evenodd" fill="#F5CFA0" d="M41.863 59.168c-.617.507-1.053 1.349-1.053 2.832h.79s-.422-.968.263-2.832z"/>
    <path fill="#FFF" d="M5.145 33.004c-.033.328-.27.289-.236-.039.025-.25.261-.211.236.039z"/>
</svg>
